<?xml version="1.0" encoding="utf-8"?>
<!-- Generator: Adobe Illustrator 15.0.0, SVG Export Plug-In . SVG Version: 6.00 Build 0)  -->
<!DOCTYPE svg PUBLIC "-//W3C//DTD SVG 1.1//EN" "http://www.w3.org/Graphics/SVG/1.1/DTD/svg11.dtd">
<svg version="1.1" id="Layer_1" xmlns="http://www.w3.org/2000/svg" xmlns:xlink="http://www.w3.org/1999/xlink" x="0px" y="0px"
	 width="120px" height="240px" viewBox="0 0 120 240" enable-background="new 0 0 120 240" xml:space="preserve">
<g>
	<path fill="#999999" d="M84,60.496v20.003c0,2.205-1.794,4-4,4H39.999c-2.205,0-4-1.795-4-4V40.493c0-2.206,1.795-4,4-4H60l8-8.001
		H39.999c-6.627,0-12,5.374-12,12.001v40.006c0,6.627,5.373,12.001,12,12.001H80c6.627,0,12.001-5.374,12.001-12.001V52.495
		L84,60.496z"/>
	<path fill="#999999" d="M54.592,64.893c1.664,1.662,4.362,1.662,6.025,0l30.126-30.121c1.663-1.666,1.663-4.36,0-6.023
		c-1.662-1.664-4.359-1.664-6.025,0l-30.126,30.12C52.929,60.531,52.929,63.229,54.592,64.893z"/>
	<path fill="#999999" d="M51.599,62.154l-4.618,10.347l10.371-4.597c0,0-2.878,0.078-4.357-1.399
		C51.599,65.111,51.599,62.154,51.599,62.154z"/>
</g>
<g>
	<path fill="#FFFFFF" d="M84,180.996V201c0,2.205-1.794,4-4,4H39.999c-2.205,0-4-1.795-4-4v-40.006c0-2.207,1.795-4,4-4H60l8-8.002
		H39.999c-6.627,0-12,5.375-12,12.002V201c0,6.627,5.373,12,12,12H80c6.627,0,12.001-5.373,12.001-12v-28.004L84,180.996z"/>
	<path fill="#FFFFFF" d="M54.592,185.393c1.664,1.662,4.362,1.662,6.025,0l30.126-30.12c1.663-1.666,1.663-4.36,0-6.022
		c-1.662-1.664-4.359-1.664-6.025,0l-30.126,30.119C52.929,181.031,52.929,183.729,54.592,185.393z"/>
	<path fill="#FFFFFF" d="M51.599,182.654l-4.618,10.348l10.371-4.598c0,0-2.878,0.078-4.357-1.398
		C51.599,185.611,51.599,182.654,51.599,182.654z"/>
</g>
</svg>
