<?xml version="1.0" encoding="utf-8"?>
<!-- Generator: Adobe Illustrator 15.0.0, SVG Export Plug-In . SVG Version: 6.00 Build 0)  -->
<!DOCTYPE svg PUBLIC "-//W3C//DTD SVG 1.1//EN" "http://www.w3.org/Graphics/SVG/1.1/DTD/svg11.dtd">
<svg version="1.1" id="Layer_1" xmlns="http://www.w3.org/2000/svg" xmlns:xlink="http://www.w3.org/1999/xlink" x="0px" y="0px"
	 width="120px" height="240px" viewBox="0 0 120 240" enable-background="new 0 0 120 240" xml:space="preserve">
<g>
	<g>
		<path fill="#999999" d="M60,42.983c3.896,0,7.057-3.159,7.057-7.057c0-3.896-3.158-7.056-7.057-7.056
			c-3.898,0-7.057,3.159-7.057,7.056C52.943,39.824,56.103,42.983,60,42.983z M60,52.944c-3.897,0-7.057,3.159-7.057,7.056
			c0,3.896,3.159,7.057,7.057,7.057c3.898,0,7.057-3.16,7.057-7.057C67.057,56.103,63.896,52.944,60,52.944z M60,77.018
			c-3.897,0-7.057,3.158-7.057,7.058c0,3.896,3.159,7.055,7.057,7.055c3.898,0,7.057-3.157,7.057-7.055
			C67.057,80.176,63.896,77.018,60,77.018z"/>
	</g>
</g>
<g>
	<g>
		<path fill="#FFFFFF" d="M60,162.982c3.896,0,7.057-3.158,7.057-7.057c0-3.896-3.158-7.056-7.057-7.056
			c-3.898,0-7.057,3.159-7.057,7.056C52.943,159.824,56.103,162.982,60,162.982z M60,172.943c-3.897,0-7.057,3.16-7.057,7.057
			s3.159,7.057,7.057,7.057c3.898,0,7.057-3.16,7.057-7.057S63.896,172.943,60,172.943z M60,197.018
			c-3.897,0-7.057,3.158-7.057,7.058c0,3.896,3.159,7.055,7.057,7.055c3.898,0,7.057-3.157,7.057-7.055
			C67.057,200.176,63.896,197.018,60,197.018z"/>
	</g>
</g>
</svg>
