<?xml version="1.0" encoding="utf-8"?>
<!-- Generator: Adobe Illustrator 15.0.0, SVG Export Plug-In . SVG Version: 6.00 Build 0)  -->
<!DOCTYPE svg PUBLIC "-//W3C//DTD SVG 1.1//EN" "http://www.w3.org/Graphics/SVG/1.1/DTD/svg11.dtd">
<svg version="1.1" id="Layer_1" xmlns="http://www.w3.org/2000/svg" xmlns:xlink="http://www.w3.org/1999/xlink" x="0px" y="0px"
	 width="120px" height="240px" viewBox="0 0 120 240" enable-background="new 0 0 120 240" xml:space="preserve">
<path fill="#999999" d="M64.232,48.012h-8.466c-0.004,0-0.007-0.001-0.01-0.001H38c0-3.334,4.427-6.237,10.992-7.798v-6.748
	c0-3.57,3.033-6.465,6.774-6.465h8.466c3.742,0,6.774,2.895,6.774,6.465v6.748C77.572,41.773,82,44.677,82,48.011H64.243
	C64.24,48.011,64.236,48.012,64.232,48.012z M65.986,35.701c0-2.053-1.838-3.717-4.104-3.717h-3.764
	c-2.267,0-4.104,1.664-4.104,3.717v3.641c1.905-0.221,3.908-0.347,5.986-0.347s4.081,0.126,5.986,0.347V35.701z M61.57,50.985H82
	l-4.714,36.156h-0.113c0.07,0.258,0.113,0.52,0.113,0.784C77.286,91.833,69.547,95,60,95s-17.286-3.167-17.286-7.074
	c0-0.266,0.043-0.527,0.113-0.785h-0.113L38,50.985h20.429H61.57z M69.957,86.994c0.813,0.109,1.102-0.025,1.212-0.896L74.977,58.2
	c0.11-0.872-0.117-1.058-0.931-1.169c-0.813-0.111-1.101,0.024-1.212,0.896l-3.807,27.895
	C68.916,86.695,69.145,86.883,69.957,86.994z M60,86.439c0,0.854,0.448,1.549,1.001,1.549c0.554,0,1-0.693,1-1.549V58.547
	c0-0.856-0.446-1.55-1-1.55c-0.553,0-1.001,0.693-1.001,1.55V86.439z M51.975,85.824l-3.807-27.896
	c-0.111-0.872-0.398-1.008-1.213-0.896c-0.813,0.111-1.04,0.297-0.93,1.169l3.807,27.896c0.111,0.871,0.398,1.008,1.212,0.896
	C51.857,86.883,52.085,86.695,51.975,85.824z"/>
<path fill="#FFFFFF" d="M64.232,168.012h-8.466c-0.004,0-0.007,0-0.01,0H38c0-3.334,4.427-6.238,10.992-7.799v-6.748
	c0-3.57,3.033-6.465,6.774-6.465h8.466c3.742,0,6.774,2.895,6.774,6.465v6.748C77.572,161.773,82,164.678,82,168.012H64.243
	C64.24,168.012,64.236,168.012,64.232,168.012z M65.986,155.701c0-2.053-1.838-3.717-4.104-3.717h-3.764
	c-2.267,0-4.104,1.664-4.104,3.717v3.641c1.905-0.221,3.908-0.347,5.986-0.347s4.081,0.126,5.986,0.347V155.701z M61.57,170.984H82
	l-4.714,36.156h-0.113c0.07,0.258,0.113,0.52,0.113,0.784c0,3.908-7.739,7.075-17.286,7.075s-17.286-3.167-17.286-7.074
	c0-0.266,0.043-0.527,0.113-0.785h-0.113L38,170.984h20.429H61.57z M69.957,206.994c0.813,0.109,1.102-0.025,1.212-0.896
	l3.808-27.897c0.11-0.872-0.117-1.058-0.931-1.169s-1.101,0.023-1.212,0.896l-3.807,27.895
	C68.916,206.695,69.145,206.883,69.957,206.994z M60,206.439c0,0.854,0.448,1.549,1.001,1.549c0.554,0,1-0.693,1-1.549v-27.893
	c0-0.855-0.446-1.55-1-1.55c-0.553,0-1.001,0.692-1.001,1.55V206.439z M51.975,205.824l-3.807-27.896
	c-0.111-0.871-0.398-1.008-1.213-0.896c-0.813,0.111-1.04,0.298-0.93,1.17l3.807,27.896c0.111,0.871,0.398,1.008,1.212,0.896
	C51.857,206.883,52.085,206.695,51.975,205.824z"/>
</svg>
