<?xml version="1.0" encoding="utf-8"?>
<!-- Generator: Adobe Illustrator 15.0.0, SVG Export Plug-In . SVG Version: 6.00 Build 0)  -->
<!DOCTYPE svg PUBLIC "-//W3C//DTD SVG 1.1//EN" "http://www.w3.org/Graphics/SVG/1.1/DTD/svg11.dtd">
<svg version="1.1" id="Layer_1" xmlns="http://www.w3.org/2000/svg" xmlns:xlink="http://www.w3.org/1999/xlink" x="0px" y="0px"
	 width="82px" height="246px" viewBox="0 0 82 246" enable-background="new 0 0 82 246" xml:space="preserve">
<g>
	<path opacity="0.6" fill="#FFFFFF" d="M41,2c21.505,0,39,17.495,39,39S62.505,80,41,80S2,62.505,2,41S19.495,2,41,2 M41,0C18.356,0,0,18.356,0,41
		s18.356,41,41,41s41-18.356,41-41S63.644,0,41,0L41,0z"/>
	<path fill-rule="evenodd" clip-rule="evenodd" fill="#FFFFFF" d="M59.607,33.609l-11.631-0.775l-4.825-11.209
		c-0.957-2.596-3.426-2.649-4.329,0L34.02,32.834l-11.631,0.775c-2.773,0-3.082,2.729-0.835,4.332l8.588,6.912l-3.101,12.406
		c-0.698,2.687,1.599,4.006,3.876,2.326l10.069-6.984l10.092,6.984c2.277,1.68,4.563,0.293,3.865-2.394l-3.09-12.339l8.587-6.895
		C62.688,36.358,62.363,33.609,59.607,33.609z M59.374,36.526l-10.209,7.759L52.84,57.76c0.386,0.843,0.015,0.829-0.407,0.409
		L41,50.001v0.095l-11.405,8.2c-0.42,0.422-0.792,0.436-0.407-0.41l3.66-13.523l-10.177-7.786c-0.752-0.605-0.498-0.868-0.05-0.868
		l13.067-0.817l4.901-12.658c0.089-0.324,0.236-0.427,0.408-0.41c0.172-0.017,0.32,0.086,0.408,0.409l4.9,12.659l13.067,0.817
		C59.824,35.709,60.128,35.923,59.374,36.526z"/>
</g>
<g>
	<path opacity="0.6" fill="#FFFFFF" d="M41,84c21.505,0,39,17.495,39,39s-17.495,39-39,39S2,144.505,2,123S19.495,84,41,84 M41,82
		c-22.644,0-41,18.356-41,41s18.356,41,41,41s41-18.356,41-41S63.644,82,41,82L41,82z"/>
	<path fill-rule="evenodd" clip-rule="evenodd" fill="#FFFFFF" d="M59.607,115.609l-11.631-0.775l-4.825-11.209
		c-0.957-2.596-3.426-2.649-4.329,0l-4.803,11.209l-11.631,0.775c-2.773,0-3.082,2.729-0.835,4.332l8.588,6.912l-3.101,12.406
		c-0.698,2.687,1.599,4.006,3.876,2.326l10.069-6.984l10.092,6.984c2.277,1.68,4.563,0.293,3.865-2.394l-3.09-12.339l8.587-6.895
		C62.688,118.358,62.363,115.609,59.607,115.609z M59.374,118.526l-10.209,7.758l3.675,13.476c0.386,0.843,0.015,0.829-0.407,0.409
		L41,132.001v0.095l-11.405,8.2c-0.42,0.422-0.792,0.436-0.407-0.41l3.66-13.523l-10.177-7.785c-0.752-0.605-0.498-0.868-0.05-0.868
		l13.067-0.817l4.901-12.658c0.089-0.324,0.236-0.427,0.408-0.41c0.172-0.017,0.32,0.086,0.408,0.409l4.9,12.659l13.067,0.817
		C59.824,117.709,60.128,117.923,59.374,118.526z"/>
	<path opacity="0.4" fill="#FFFFFF" d="M41,82c-22.644,0-41,18.356-41,41s18.356,41,41,41s41-18.356,41-41S63.644,82,41,82L41,82z"
		/>
</g>
<g opacity="0.4">
	<path opacity="0.6" fill="#FFFFFF" d="M41,166c21.505,0,39,17.495,39,39s-17.495,39-39,39S2,226.505,2,205S19.495,166,41,166 M41,164
		c-22.644,0-41,18.356-41,41s18.356,41,41,41s41-18.356,41-41S63.644,164,41,164L41,164z"/>
	<path fill-rule="evenodd" clip-rule="evenodd" fill="#FFFFFF" d="M59.607,197.609l-11.631-0.775l-4.825-11.209
		c-0.957-2.596-3.426-2.649-4.329,0l-4.803,11.209l-11.631,0.775c-2.773,0-3.082,2.729-0.835,4.331l8.588,6.912l-3.101,12.406
		c-0.698,2.687,1.599,4.006,3.876,2.326l10.069-6.984l10.092,6.984c2.277,1.68,4.563,0.293,3.865-2.394l-3.09-12.339l8.587-6.895
		C62.688,200.357,62.363,197.609,59.607,197.609z M59.374,200.525l-10.209,7.759l3.675,13.476c0.386,0.843,0.015,0.829-0.407,0.409
		L41,214.001v0.095l-11.405,8.2c-0.42,0.422-0.792,0.436-0.407-0.41l3.66-13.523l-10.177-7.785c-0.752-0.605-0.498-0.868-0.05-0.868
		l13.067-0.816l4.901-12.658c0.089-0.323,0.236-0.427,0.408-0.41c0.172-0.017,0.32,0.086,0.408,0.409l4.9,12.659l13.067,0.816
		C59.824,199.709,60.128,199.923,59.374,200.525z"/>
</g>
</svg>
