<?xml version="1.0" encoding="utf-8"?>
<!-- Generator: Adobe Illustrator 16.0.0, SVG Export Plug-In . SVG Version: 6.00 Build 0)  -->
<!DOCTYPE svg PUBLIC "-//W3C//DTD SVG 1.1//EN" "http://www.w3.org/Graphics/SVG/1.1/DTD/svg11.dtd">
<svg version="1.1" id="Layer_1" xmlns="http://www.w3.org/2000/svg" xmlns:xlink="http://www.w3.org/1999/xlink" x="0px" y="0px"
	 width="82px" height="246px" viewBox="0 0 82 246" enable-background="new 0 0 82 246" xml:space="preserve">
<g>
	<path opacity="0.6" fill="#FFFFFF" d="M41,0C18.356,0,0,18.356,0,41s18.356,41,41,41s41-18.356,41-41S63.644,0,41,0z M41,80
		C19.461,80,2,62.539,2,41S19.461,2,41,2s39,17.461,39,39S62.539,80,41,80z"/>
	<path fill-rule="evenodd" clip-rule="evenodd" fill="#FFFFFF" d="M49.731,43.66l-4.844,4.842c-1.378-0.961-3.419-2.6-6.191-5.37
		c-2.764-2.763-4.411-4.822-5.379-6.211l4.836-4.834L28.191,20.5c-0.792,0.511-1.544,1.107-2.238,1.801
		c-4.884,4.882-5.239,12.566-1.084,17.865c0,0,2.528,3.834,7.74,9.045c5.322,5.32,8.983,7.801,8.983,7.801
		c5.302,4.151,13.053,3.734,17.936-1.147c0.691-0.691,1.287-1.442,1.798-2.231L49.731,43.66z M49.95,57.854
		c-3.81,0-6.908-2.286-6.908-2.286s-3.502-2.513-8.891-7.899s-7.818-8.967-7.818-8.967l0,0c-1.446-1.925-2.313-4.31-2.313-6.904
		c0-3.386,1.481-6.407,3.809-8.512l7.609,8.892l-2.66,2.659l-1.781,1.781c-0.004-0.002,1.181,2.826,6.708,8.351
		c5.997,5.995,7.627,5.748,7.627,5.748l0.044-0.045h0.001l4.396-4.396l8.921,7.576C56.562,56.294,53.446,57.854,49.95,57.854z"/>
</g>
<g>
	<path opacity="0.6" fill="#FFFFFF" d="M41,82c-22.644,0-41,18.356-41,41s18.356,41,41,41s41-18.356,41-41S63.644,82,41,82z M41,162
		c-21.539,0-39-17.461-39-39s17.461-39,39-39s39,17.461,39,39S62.539,162,41,162z"/>
	<path fill-rule="evenodd" clip-rule="evenodd" fill="#FFFFFF" d="M49.731,125.66l-4.844,4.842c-1.378-0.961-3.419-2.6-6.191-5.371
		c-2.764-2.762-4.411-4.821-5.379-6.211l4.836-4.834L28.191,102.5c-0.792,0.511-1.544,1.107-2.238,1.801
		c-4.884,4.882-5.239,12.566-1.084,17.865c0,0,2.528,3.834,7.74,9.045c5.322,5.32,8.983,7.801,8.983,7.801
		c5.302,4.151,13.053,3.734,17.936-1.146c0.691-0.691,1.287-1.442,1.798-2.231L49.731,125.66z M49.95,139.854
		c-3.81,0-6.908-2.285-6.908-2.285s-3.502-2.514-8.891-7.9s-7.818-8.966-7.818-8.966l0,0c-1.446-1.925-2.313-4.31-2.313-6.904
		c0-3.386,1.481-6.407,3.809-8.512l7.609,8.892l-2.66,2.659l-1.781,1.781c-0.004-0.002,1.181,2.826,6.708,8.35
		c5.997,5.996,7.627,5.748,7.627,5.748l0.044-0.045h0.001l4.396-4.395l8.921,7.575C56.562,138.295,53.446,139.854,49.95,139.854z"/>
	<path opacity="0.2" fill="#FFFFFF" d="M41,82c-22.644,0-41,18.356-41,41s18.356,41,41,41s41-18.356,41-41S63.644,82,41,82z"/>
</g>
<g opacity="0.4">
	<path opacity="0.6" fill="#FFFFFF" d="M41,164c-22.644,0-41,18.356-41,41s18.356,41,41,41s41-18.356,41-41S63.644,164,41,164z
		 M41,244c-21.539,0-39-17.461-39-39s17.461-39,39-39s39,17.461,39,39S62.539,244,41,244z"/>
	<path fill-rule="evenodd" clip-rule="evenodd" fill="#FFFFFF" d="M49.731,207.66l-4.844,4.842c-1.378-0.961-3.419-2.6-6.191-5.371
		c-2.764-2.762-4.411-4.821-5.379-6.211l4.836-4.834L28.191,184.5c-0.792,0.512-1.544,1.107-2.238,1.801
		c-4.884,4.882-5.239,12.566-1.084,17.865c0,0,2.528,3.834,7.74,9.045c5.322,5.32,8.983,7.801,8.983,7.801
		c5.302,4.151,13.053,3.734,17.936-1.146c0.691-0.691,1.287-1.442,1.798-2.231L49.731,207.66z M49.95,221.854
		c-3.81,0-6.908-2.285-6.908-2.285s-3.502-2.514-8.891-7.9s-7.818-8.967-7.818-8.967l0,0.001c-1.446-1.925-2.313-4.31-2.313-6.903
		c0-3.387,1.481-6.407,3.809-8.512l7.609,8.892l-2.66,2.659l-1.781,1.781c-0.004-0.002,1.181,2.825,6.708,8.35
		c5.997,5.996,7.627,5.748,7.627,5.748l0.044-0.045h0.001l4.396-4.395l8.921,7.575C56.562,220.295,53.446,221.854,49.95,221.854z"/>
</g>
</svg>
