<?xml version="1.0" encoding="utf-8"?>
<!-- Generator: Adobe Illustrator 15.0.0, SVG Export Plug-In . SVG Version: 6.00 Build 0)  -->
<!DOCTYPE svg PUBLIC "-//W3C//DTD SVG 1.1//EN" "http://www.w3.org/Graphics/SVG/1.1/DTD/svg11.dtd">
<svg version="1.1" id="레이어_1" xmlns="http://www.w3.org/2000/svg" xmlns:xlink="http://www.w3.org/1999/xlink" x="0px"
	 y="0px" width="82px" height="246px" viewBox="0 0 82 246" enable-background="new 0 0 82 246" xml:space="preserve">
<g>
	<circle fill="#1CD2D2" cx="41" cy="41" r="41"/>
	<path fill="#FAFAFA" d="M64.582,25.545c-0.456-0.48-1.479-0.774-1.958-0.315L35.306,52.267L22.351,39.272
		c-0.474-0.464-1.392-0.29-1.854,0.188c-0.463,0.474-0.719,1.507-0.241,1.969l14.355,14.4c0.474,0.463,1.501,0.179,1.961-0.297
		c0.166-0.17,0.29-0.399,0.36-0.643L64.7,27.405C65.182,26.949,65.042,26.024,64.582,25.545z"/>
</g>
<g>
	<circle fill="#1CD2D2" cx="41" cy="122.984" r="41"/>
	<circle opacity="0.45" fill="#FAFAFA" enable-background="new    " cx="41" cy="122.969" r="41"/>
	<path opacity="0.8" fill="#FAFAFA" enable-background="new    " d="M64.582,107.503c-0.456-0.479-1.479-0.774-1.958-0.315
		l-27.318,27.037L22.351,121.23c-0.474-0.465-1.392-0.291-1.854,0.188c-0.463,0.475-0.719,1.507-0.241,1.969l14.355,14.401
		c0.474,0.463,1.501,0.178,1.961-0.297c0.166-0.171,0.29-0.399,0.36-0.644L64.7,109.364
		C65.182,108.907,65.042,107.982,64.582,107.503z"/>
</g>
<g opacity="0.4">
	<circle fill="#1CD2D2" cx="41" cy="205" r="41"/>
	<path fill="#FAFAFA" d="M64.582,189.545c-0.456-0.48-1.479-0.773-1.958-0.314l-27.318,27.037l-12.955-12.996
		c-0.474-0.463-1.392-0.289-1.854,0.188c-0.463,0.476-0.719,1.508-0.241,1.97l14.355,14.399c0.474,0.463,1.501,0.18,1.961-0.297
		c0.166-0.171,0.29-0.398,0.36-0.644L64.7,191.406C65.182,190.949,65.042,190.023,64.582,189.545z"/>
</g>
</svg>
