<?xml version="1.0" encoding="utf-8"?>
<!-- Generator: Adobe Illustrator 15.0.0, SVG Export Plug-In . SVG Version: 6.00 Build 0)  -->
<!DOCTYPE svg PUBLIC "-//W3C//DTD SVG 1.1//EN" "http://www.w3.org/Graphics/SVG/1.1/DTD/svg11.dtd">
<svg version="1.1" id="Layer_1" xmlns="http://www.w3.org/2000/svg" xmlns:xlink="http://www.w3.org/1999/xlink" x="0px" y="0px"
	 width="48px" height="48px" viewBox="0 0 48 48" enable-background="new 0 0 48 48" xml:space="preserve">
<path fill="#959595" d="M40.131,34.405c-0.102-0.262-0.244-0.5-0.414-0.719L26.643,11.042L26.445,10.7
	c-0.529-0.752-1.4-1.247-2.388-1.247c-0.963,0-1.811,0.472-2.343,1.191l-0.357,0.62L8.412,33.685
	c-0.18,0.228-0.329,0.478-0.435,0.753c-0.125,0.326-0.202,0.677-0.202,1.047c0,1.507,1.146,2.734,2.612,2.891l27.185-0.094
	c0.018-0.001,0.035-0.002,0.053-0.003c1.516-0.108,2.713-1.314,2.713-2.856C40.338,35.046,40.262,34.736,40.131,34.405z M23.953,17
	H24c0,0,2.027-0.133,2.027,2.023s-0.691,7.039-0.879,8.726s-0.695,2.28-1.07,2.28S23.188,29.434,23,27.746s-0.969-6.566-0.969-8.723
	C22.031,17.055,23.953,17,23.953,17z M24.094,35c-1.105,0-2-0.895-2-2s0.895-2,2-2s2,0.895,2,2S25.199,35,24.094,35z"/>
</svg>
