<?xml version="1.0" encoding="utf-8"?>
<!-- Generator: Adobe Illustrator 16.0.0, SVG Export Plug-In . SVG Version: 6.00 Build 0)  -->
<!DOCTYPE svg PUBLIC "-//W3C//DTD SVG 1.1//EN" "http://www.w3.org/Graphics/SVG/1.1/DTD/svg11.dtd">
<svg version="1.1" id="Layer_1" xmlns="http://www.w3.org/2000/svg" xmlns:xlink="http://www.w3.org/1999/xlink" x="0px" y="0px"
	 width="22px" height="22px" viewBox="0 0 22 22" enable-background="new 0 0 22 22" xml:space="preserve">
<path fill-rule="evenodd" clip-rule="evenodd" fill="none" stroke="#000000" stroke-width="0.01" stroke-miterlimit="10" d="
	M2.817,17.988"/>
<path fill-rule="evenodd" clip-rule="evenodd" fill="none" stroke="#000000" stroke-width="0.01" stroke-miterlimit="10" d="
	M2.817,17.988"/>
<path fill-rule="evenodd" clip-rule="evenodd" fill="#FFFFFF" d="M20.35,16.219L12.757,1.047C12.414,0.426,11.76,0,11,0
	S9.586,0.426,9.243,1.047L1.668,16.184c0,0-0.127,0.36-0.127,0.563c0,0.687,0.556,1.242,1.242,1.242c0.034,0,16.431,0,16.431,0
	c0.686,0,1.242-0.556,1.242-1.242C20.456,16.559,20.35,16.219,20.35,16.219z M11.05,15.867c-0.75,0-1.358-0.389-1.358-0.868
	c0-0.479,0.608-0.866,1.358-0.866c0.75,0,1.358,0.388,1.358,0.866C12.408,15.479,11.8,15.867,11.05,15.867z M11.819,12.646H10.25
	L9.6,5.71c0.039-0.547,0.674-0.985,1.383-0.985s1.414,0.438,1.452,0.985L11.819,12.646z"/>
</svg>
