<?xml version="1.0" encoding="utf-8"?>
<!-- Generator: Adobe Illustrator 16.0.0, SVG Export Plug-In . SVG Version: 6.00 Build 0)  -->
<!DOCTYPE svg PUBLIC "-//W3C//DTD SVG 1.1//EN" "http://www.w3.org/Graphics/SVG/1.1/DTD/svg11.dtd">
<svg version="1.1" id="Layer_1" xmlns="http://www.w3.org/2000/svg" xmlns:xlink="http://www.w3.org/1999/xlink" x="0px" y="0px"
	 width="82px" height="246px" viewBox="0 0 82 246" enable-background="new 0 0 82 246" xml:space="preserve">
<g>
	<path opacity="0.6" fill="#FFFFFF" d="M41,0C18.356,0,0,18.356,0,41s18.356,41,41,41s41-18.356,41-41S63.644,0,41,0z M41,80
		C19.461,80,2,62.539,2,41S19.461,2,41,2s39,17.461,39,39S62.539,80,41,80z"/>
	<path fill-rule="evenodd" clip-rule="evenodd" fill="#FFFFFF" d="M56.855,25.12c-2.58-2.583-6.768-2.579-9.352,0.008
		c-0.096,0.096-0.185,0.198-0.272,0.297L23,49.652v0.001V59h9.346h0.002l24.475-24.479l-0.008-0.01
		c0.011-0.01,0.022-0.02,0.033-0.031C59.434,31.894,59.436,27.702,56.855,25.12z M30.723,57H25v-5.682l19.798-20.573l6.359,6.341
		L30.723,57z M55.391,33.01c-0.065,0.065-0.141,0.11-0.209,0.17l-2.408,2.349l-6.407-6.408l2.521-2.62l0.007,0.007
		c1.798-1.787,4.704-1.786,6.497,0.006C57.186,28.309,57.186,31.216,55.391,33.01z"/>
</g>
<g>
	<path opacity="0.6" fill="#FFFFFF" d="M41,82c-22.644,0-41,18.356-41,41s18.356,41,41,41s41-18.356,41-41S63.644,82,41,82z M41,162
		c-21.539,0-39-17.461-39-39s17.461-39,39-39s39,17.461,39,39S62.539,162,41,162z"/>
	<path fill-rule="evenodd" clip-rule="evenodd" fill="#FFFFFF" d="M56.855,107.12c-2.58-2.583-6.768-2.579-9.352,0.008
		c-0.096,0.096-0.185,0.198-0.272,0.297L23,131.652v0.002V141h9.346h0.002l24.475-24.479l-0.008-0.01
		c0.011-0.01,0.022-0.02,0.033-0.031C59.434,113.894,59.436,109.702,56.855,107.12z M30.723,139H25v-5.682l19.798-20.573
		l6.359,6.341L30.723,139z M55.391,115.01c-0.065,0.065-0.141,0.11-0.209,0.17l-2.408,2.349l-6.407-6.408l2.521-2.62l0.007,0.007
		c1.798-1.787,4.704-1.786,6.497,0.006C57.186,110.309,57.186,113.216,55.391,115.01z"/>
	<path opacity="0.2" fill="#FFFFFF" d="M41,82c-22.644,0-41,18.356-41,41s18.356,41,41,41s41-18.356,41-41S63.644,82,41,82z"/>
</g>
<g opacity="0.4">
	<path opacity="0.6" fill="#FFFFFF" d="M41,164c-22.644,0-41,18.356-41,41s18.356,41,41,41s41-18.356,41-41S63.644,164,41,164z
		 M41,244c-21.539,0-39-17.461-39-39s17.461-39,39-39s39,17.461,39,39S62.539,244,41,244z"/>
	<path fill-rule="evenodd" clip-rule="evenodd" fill="#FFFFFF" d="M56.855,189.119c-2.58-2.582-6.768-2.578-9.352,0.008
		c-0.096,0.096-0.185,0.198-0.272,0.298L23,213.652v0.002V223h9.346h0.002l24.475-24.479l-0.008-0.01
		c0.011-0.011,0.022-0.021,0.033-0.031C59.434,195.894,59.436,191.702,56.855,189.119z M30.723,221H25v-5.682l19.798-20.572
		l6.359,6.34L30.723,221z M55.391,197.01c-0.065,0.065-0.141,0.111-0.209,0.171l-2.408,2.349l-6.407-6.408l2.521-2.619l0.007,0.007
		c1.798-1.787,4.704-1.786,6.497,0.006C57.186,192.309,57.186,195.217,55.391,197.01z"/>
</g>
</svg>
