<?xml version="1.0" encoding="utf-8"?>
<!-- Generator: Adobe Illustrator 15.0.0, SVG Export Plug-In . SVG Version: 6.00 Build 0)  -->
<!DOCTYPE svg PUBLIC "-//W3C//DTD SVG 1.1//EN" "http://www.w3.org/Graphics/SVG/1.1/DTD/svg11.dtd">
<svg version="1.1" id="Layer_1" xmlns="http://www.w3.org/2000/svg" xmlns:xlink="http://www.w3.org/1999/xlink" x="0px" y="0px"
	 width="82px" height="246px" viewBox="0 0 82 246" enable-background="new 0 0 82 246" xml:space="preserve">
<g>
	<circle fill="#1CD2D2" cx="41" cy="41" r="41"/>
	<g>
		<g>
			<path fill="#FAFAFA" d="M36.5,23C29.044,23,23,29.044,23,36.5C23,43.955,29.044,50,36.5,50S50,43.955,50,36.5
				C50,29.044,43.956,23,36.5,23z M36.5,48C30.148,48,25,42.852,25,36.5S30.148,25,36.5,25C42.851,25,48,30.148,48,36.5
				S42.851,48,36.5,48z"/>
		</g>
		<path fill="#FAFAFA" d="M43.368,45.989L56.45,59.071c0.586,0.586,1.535,0.585,2.121,0c0.585-0.585,0.586-1.535,0-2.121
			L45.489,43.868L43.368,45.989z"/>
	</g>
</g>
<g>
	<circle fill="#1CD2D2" cx="41" cy="123" r="41"/>
	<circle opacity="0.45" fill="#FAFAFA" cx="41" cy="123" r="41"/>
	<g opacity="0.8">
		<g>
			<path fill="#FAFAFA" d="M36.5,105c-7.456,0-13.5,6.044-13.5,13.5c0,7.455,6.044,13.5,13.5,13.5S50,125.955,50,118.5
				C50,111.044,43.956,105,36.5,105z M36.5,130c-6.352,0-11.5-5.148-11.5-11.5S30.148,107,36.5,107c6.351,0,11.5,5.148,11.5,11.5
				S42.851,130,36.5,130z"/>
		</g>
		<path fill="#FAFAFA" d="M43.368,127.989L56.45,141.07c0.586,0.586,1.535,0.586,2.121,0c0.585-0.585,0.586-1.535,0-2.121
			l-13.082-13.081L43.368,127.989z"/>
	</g>
</g>
<g opacity="0.4">
	<circle fill="#1CD2D2" cx="41" cy="205" r="41"/>
	<g>
		<g>
			<path fill="#FAFAFA" d="M36.5,187c-7.456,0-13.5,6.044-13.5,13.5c0,7.455,6.044,13.5,13.5,13.5S50,207.955,50,200.5
				C50,193.044,43.956,187,36.5,187z M36.5,212c-6.352,0-11.5-5.148-11.5-11.5S30.148,189,36.5,189c6.351,0,11.5,5.148,11.5,11.5
				S42.851,212,36.5,212z"/>
		</g>
		<path fill="#FAFAFA" d="M43.368,209.989L56.45,223.07c0.586,0.586,1.535,0.586,2.121,0c0.585-0.585,0.586-1.535,0-2.121
			l-13.082-13.081L43.368,209.989z"/>
	</g>
</g>
</svg>
