<?xml version="1.0" encoding="utf-8"?>
<!-- Generator: Adobe Illustrator 16.0.0, SVG Export Plug-In . SVG Version: 6.00 Build 0)  -->
<!DOCTYPE svg PUBLIC "-//W3C//DTD SVG 1.1//EN" "http://www.w3.org/Graphics/SVG/1.1/DTD/svg11.dtd">
<svg version="1.1" id="Layer_1" xmlns="http://www.w3.org/2000/svg" xmlns:xlink="http://www.w3.org/1999/xlink" x="0px" y="0px"
	 width="82px" height="246px" viewBox="0 0 82 246" enable-background="new 0 0 82 246" xml:space="preserve">
<g>
	<path opacity="0.6" fill="#FFFFFF" d="M41,0C18.356,0,0,18.356,0,41s18.356,41,41,41s41-18.356,41-41S63.644,0,41,0z M41,80
		C19.461,80,2,62.539,2,41S19.461,2,41,2s39,17.461,39,39S62.539,80,41,80z"/>
	<polygon fill="#FFFFFF" points="42,25 42,20 40,20 40,25 23,25 23,27 59,27 59,25 	"/>
	<path fill="#FFFFFF" d="M54,58c0,1.103-0.897,2-2,2H30c-1.104,0-2-0.897-2-2V32h-2v26c0,2.209,1.791,4,4,4h22c2.209,0,4-1.791,4-4
		V32h-2V58z"/>
</g>
<g>
	<path opacity="0.6" fill="#FFFFFF" d="M41,82c-22.644,0-41,18.356-41,41s18.356,41,41,41s41-18.356,41-41S63.644,82,41,82z M41,162
		c-21.539,0-39-17.461-39-39s17.461-39,39-39s39,17.461,39,39S62.539,162,41,162z"/>
	<polygon fill="#FFFFFF" points="42,107 42,102 40,102 40,107 23,107 23,109 59,109 59,107 	"/>
	<path fill="#FFFFFF" d="M54,140c0,1.104-0.897,2-2,2H30c-1.104,0-2-0.896-2-2v-26h-2v26c0,2.209,1.791,4,4,4h22
		c2.209,0,4-1.791,4-4v-26h-2V140z"/>
	<path opacity="0.2" fill="#FFFFFF" d="M41,82c-22.644,0-41,18.356-41,41s18.356,41,41,41s41-18.356,41-41S63.644,82,41,82z"/>
</g>
<g opacity="0.4">
	<path opacity="0.6" fill="#FFFFFF" d="M41,164c-22.644,0-41,18.356-41,41s18.356,41,41,41s41-18.356,41-41S63.644,164,41,164z
		 M41,244c-21.539,0-39-17.461-39-39s17.461-39,39-39s39,17.461,39,39S62.539,244,41,244z"/>
	<polygon fill="#FFFFFF" points="42,189 42,184 40,184 40,189 23,189 23,191 59,191 59,189 	"/>
	<path fill="#FFFFFF" d="M54,222c0,1.104-0.897,2-2,2H30c-1.104,0-2-0.896-2-2v-26h-2v26c0,2.209,1.791,4,4,4h22
		c2.209,0,4-1.791,4-4v-26h-2V222z"/>
</g>
</svg>
