<?xml version="1.0" encoding="utf-8"?>
<!-- Generator: Adobe Illustrator 15.0.0, SVG Export Plug-In . SVG Version: 6.00 Build 0)  -->
<!DOCTYPE svg PUBLIC "-//W3C//DTD SVG 1.1//EN" "http://www.w3.org/Graphics/SVG/1.1/DTD/svg11.dtd">
<svg version="1.1" id="Layer_4" xmlns="http://www.w3.org/2000/svg" xmlns:xlink="http://www.w3.org/1999/xlink" x="0px" y="0px"
	 width="68px" height="204px" viewBox="0 0 68 204" enable-background="new 0 0 68 204" xml:space="preserve">
<g>
	<path opacity="0.8" d="M34,2c17.645,0,32,14.355,32,32S51.645,66,34,66C16.355,66,2,51.645,2,34S16.355,2,34,2"/>
	<path opacity="0.6" fill="#FFFFFF" d="M34,2c17.645,0,32,14.355,32,32S51.645,66,34,66C16.355,66,2,51.645,2,34S16.355,2,34,2
		 M34,0C15.222,0,0,15.222,0,34s15.222,34,34,34c18.777,0,34-15.222,34-34S52.777,0,34,0L34,0z"/>
	<path fill-rule="evenodd" clip-rule="evenodd" fill="#FFFFFF" d="M22.325,34l-0.004-0.002l1.414-1.414l0.004,0.002l14.847-14.846
		L40,19.153L25.153,34L40,48.846l-1.416,1.415L23.739,35.414l-0.002,0.003l-1.416-1.415L22.325,34z"/>
</g>
<g>
	<path opacity="0.8" d="M34,70c17.645,0,32,14.355,32,32c0,17.645-14.355,32-32,32c-17.645,0-32-14.355-32-32
		C2,84.355,16.355,70,34,70"/>
	<path opacity="0.6" fill="#FFFFFF" d="M34,70c17.645,0,32,14.355,32,32c0,17.645-14.355,32-32,32c-17.645,0-32-14.355-32-32
		C2,84.355,16.355,70,34,70 M34,68C15.222,68,0,83.222,0,102c0,18.777,15.222,34,34,34c18.777,0,34-15.223,34-34
		C68,83.222,52.777,68,34,68L34,68z"/>
	<path fill-rule="evenodd" clip-rule="evenodd" fill="#FFFFFF" d="M22.325,101.999l-0.004-0.002l1.414-1.414l0.004,0.002
		l14.847-14.846L40,87.153L25.153,102L40,116.846l-1.416,1.415l-14.845-14.847l-0.002,0.003l-1.416-1.415L22.325,101.999z"/>
	<path opacity="0.4" fill="#FFFFFF" d="M34,68L34,68C15.222,68,0,83.222,0,102c0,18.777,15.222,34,34,34c18.777,0,34-15.223,34-34
		C68,83.222,52.777,68,34,68"/>
</g>
<g opacity="0.4">
	<path opacity="0.8" d="M34,137.869c17.645,0,32,14.355,32,32s-14.355,32-32,32c-17.645,0-32-14.355-32-32
		S16.355,137.869,34,137.869"/>
	<path opacity="0.6" fill="#FFFFFF" d="M34,137.869c17.645,0,32,14.355,32,32s-14.355,32-32,32c-17.645,0-32-14.355-32-32
		S16.355,137.869,34,137.869 M34,135.869c-18.778,0-34,15.223-34,34s15.222,34,34,34c18.777,0,34-15.223,34-34
		S52.777,135.869,34,135.869L34,135.869z"/>
	<path fill-rule="evenodd" clip-rule="evenodd" fill="#FFFFFF" d="M22.325,169.999l-0.004-0.002l1.414-1.414l0.004,0.002
		l14.847-14.846L40,155.153L25.153,170L40,184.846l-1.416,1.415l-14.845-14.847l-0.002,0.003l-1.416-1.415L22.325,169.999z"/>
</g>
</svg>
