<?xml version="1.0" encoding="utf-8"?>
<!-- Generator: Adobe Illustrator 15.0.0, SVG Export Plug-In . SVG Version: 6.00 Build 0)  -->
<!DOCTYPE svg PUBLIC "-//W3C//DTD SVG 1.1//EN" "http://www.w3.org/Graphics/SVG/1.1/DTD/svg11.dtd">
<svg version="1.1" id="레이어_1" xmlns="http://www.w3.org/2000/svg" xmlns:xlink="http://www.w3.org/1999/xlink" x="0px"
	 y="0px" width="82px" height="246px" viewBox="0 0 82 246" enable-background="new 0 0 82 246" xml:space="preserve">
<g>
	<circle fill="#1CD2D2" cx="41" cy="41" r="41"/>
	<path fill="#FAFAFA" d="M43.18,40.974l15.117-14.445c0.48-0.456,0.344-1.381-0.117-1.86c-0.455-0.48-1.479-0.774-1.957-0.315
		l-15.2,14.522L25.979,24.24c-0.474-0.464-1.392-0.29-1.854,0.188c-0.463,0.474-0.719,1.507-0.241,1.969l14.964,14.558
		L23.664,55.462c-0.48,0.456-0.234,1.493,0.223,1.971c0.459,0.481,1.375,0.664,1.854,0.205l15.263-14.584l15.155,14.744
		c0.474,0.463,1.501,0.179,1.961-0.297c0.464-0.476,0.612-1.398,0.135-1.86L43.18,40.974z"/>
</g>
<g>
	<circle fill="#1CD2D2" cx="41" cy="122.984" r="41"/>
	<circle opacity="0.45" fill="#FAFAFA" enable-background="new    " cx="41" cy="122.969" r="41"/>
	<path opacity="0.8" fill="#FAFAFA" enable-background="new    " d="M43.18,122.958l15.117-14.444
		c0.48-0.457,0.344-1.382-0.117-1.861c-0.455-0.479-1.479-0.773-1.957-0.314L41.024,120.86l-15.045-14.635
		c-0.474-0.465-1.392-0.291-1.854,0.188c-0.463,0.474-0.719,1.507-0.241,1.969l14.964,14.559l-15.183,14.506
		c-0.481,0.457-0.235,1.494,0.224,1.972c0.457,0.481,1.375,0.664,1.854,0.205l15.263-14.585l15.155,14.744
		c0.474,0.463,1.501,0.179,1.961-0.297c0.464-0.479,0.61-1.398,0.135-1.86L43.18,122.958z"/>
</g>
<g opacity="0.4">
	<circle fill="#1CD2D2" cx="41" cy="205" r="41"/>
	<path fill="#FAFAFA" d="M43.18,204.975l15.117-14.445c0.48-0.453,0.344-1.381-0.117-1.857c-0.455-0.479-1.479-0.771-1.957-0.313
		L41.024,202.88l-15.045-14.64c-0.474-0.465-1.392-0.29-1.854,0.188c-0.463,0.475-0.719,1.508-0.241,1.969l14.964,14.562
		l-15.183,14.507c-0.481,0.456-0.235,1.493,0.224,1.973c0.457,0.479,1.375,0.664,1.854,0.205l15.263-14.584L56.161,221.8
		c0.474,0.464,1.501,0.181,1.961-0.297c0.464-0.478,0.61-1.396,0.135-1.858L43.18,204.975z"/>
</g>
</svg>
