<?xml version="1.0" encoding="utf-8"?>
<!-- Generator: Adobe Illustrator 15.0.0, SVG Export Plug-In . SVG Version: 6.00 Build 0)  -->
<!DOCTYPE svg PUBLIC "-//W3C//DTD SVG 1.1//EN" "http://www.w3.org/Graphics/SVG/1.1/DTD/svg11.dtd">
<svg version="1.1" id="Layer_1" xmlns="http://www.w3.org/2000/svg" xmlns:xlink="http://www.w3.org/1999/xlink" x="0px" y="0px"
	 width="82px" height="246px" viewBox="0 0 82 246" enable-background="new 0 0 82 246" xml:space="preserve">
<g>
	<path opacity="0.6" fill="#FAFAFA" d="M41,2c21.505,0,39,17.495,39,39S62.505,80,41,80S2,62.505,2,41S19.495,2,41,2 M41,0
		C18.356,0,0,18.356,0,41s18.356,41,41,41s41-18.356,41-41S63.644,0,41,0L41,0z"/>
	<g>
		<path fill-rule="evenodd" clip-rule="evenodd" fill="#FAFAFA" d="M52.337,33.973c-1.719,0-3.265-0.729-4.356-1.89l-14.098,8.082
			c0.055,0.325,0.09,0.655,0.09,0.995c0,0.339-0.035,0.669-0.089,0.992l14.099,8.083c1.092-1.16,2.637-1.887,4.354-1.887
			c3.306,0,5.986,2.68,5.986,5.986c0,3.306-2.681,5.986-5.986,5.986s-5.986-2.68-5.986-5.986c0-0.774,0.152-1.512,0.42-2.191
			l-13.691-7.849c-1.054,1.709-2.938,2.853-5.093,2.853c-3.306,0-5.986-2.68-5.986-5.987c0-3.306,2.68-5.986,5.986-5.986
			c2.155,0,4.038,1.142,5.092,2.85l13.692-7.849c-0.267-0.678-0.419-1.415-0.419-2.188c0-3.307,2.681-5.987,5.986-5.987
			s5.986,2.68,5.986,5.987C58.323,31.292,55.643,33.973,52.337,33.973z M52.337,57.928c1.983,0,3.591-1.609,3.591-3.595
			s-1.607-3.595-3.591-3.595s-3.591,1.609-3.591,3.595S50.354,57.928,52.337,57.928z M27.986,37.565
			c-1.983,0-3.591,1.609-3.591,3.595s1.607,3.595,3.591,3.595s3.591-1.61,3.591-3.595S29.969,37.565,27.986,37.565z M52.337,24.392
			c-1.983,0-3.591,1.609-3.591,3.595s1.607,3.595,3.591,3.595s3.591-1.609,3.591-3.595S54.32,24.392,52.337,24.392z"/>
	</g>
</g>
<g>
	<path opacity="0.6" fill="#FAFAFA" d="M41,84c21.505,0,39,17.495,39,39s-17.495,39-39,39S2,144.505,2,123S19.495,84,41,84 M41,82
		c-22.644,0-41,18.356-41,41s18.356,41,41,41s41-18.356,41-41S63.644,82,41,82L41,82z"/>
	<path fill-rule="evenodd" clip-rule="evenodd" fill="#FAFAFA" d="M52.337,115.973c-1.719,0-3.265-0.729-4.356-1.89l-14.098,8.082
		c0.055,0.325,0.09,0.655,0.09,0.995c0,0.339-0.035,0.669-0.089,0.993l14.099,8.082c1.092-1.16,2.637-1.887,4.354-1.887
		c3.306,0,5.986,2.68,5.986,5.986c0,3.306-2.681,5.986-5.986,5.986s-5.986-2.681-5.986-5.986c0-0.775,0.152-1.512,0.42-2.191
		l-13.691-7.849c-1.054,1.71-2.938,2.853-5.093,2.853c-3.306,0-5.986-2.68-5.986-5.987c0-3.306,2.68-5.986,5.986-5.986
		c2.155,0,4.038,1.142,5.092,2.85l13.692-7.849c-0.267-0.678-0.419-1.415-0.419-2.188c0-3.307,2.681-5.987,5.986-5.987
		s5.986,2.68,5.986,5.987C58.323,113.292,55.643,115.973,52.337,115.973z M52.337,139.928c1.983,0,3.591-1.609,3.591-3.594
		c0-1.986-1.607-3.596-3.591-3.596s-3.591,1.609-3.591,3.596C48.746,138.318,50.354,139.928,52.337,139.928z M27.986,119.565
		c-1.983,0-3.591,1.609-3.591,3.595c0,1.985,1.607,3.595,3.591,3.595s3.591-1.61,3.591-3.595
		C31.577,121.174,29.969,119.565,27.986,119.565z M52.337,106.392c-1.983,0-3.591,1.609-3.591,3.595s1.607,3.595,3.591,3.595
		s3.591-1.609,3.591-3.595S54.32,106.392,52.337,106.392z"/>
	<path opacity="0.33" fill="#FAFAFA" d="M41,82c-22.644,0-41,18.356-41,41s18.356,41,41,41s41-18.356,41-41S63.644,82,41,82L41,82z"
		/>
</g>
<g opacity="0.4">
	<path opacity="0.6" fill="#FAFAFA" d="M41,166c21.505,0,39,17.495,39,39s-17.495,39-39,39S2,226.505,2,205S19.495,166,41,166
		 M41,164c-22.644,0-41,18.356-41,41s18.356,41,41,41s41-18.356,41-41S63.644,164,41,164L41,164z"/>
	<path fill-rule="evenodd" clip-rule="evenodd" fill="#FAFAFA" d="M52.337,197.973c-1.719,0-3.265-0.729-4.356-1.889l-14.098,8.081
		c0.055,0.325,0.09,0.655,0.09,0.995c0,0.338-0.035,0.668-0.089,0.992l14.099,8.082c1.092-1.16,2.637-1.887,4.354-1.887
		c3.306,0,5.986,2.68,5.986,5.986c0,3.306-2.681,5.986-5.986,5.986s-5.986-2.681-5.986-5.986c0-0.775,0.152-1.512,0.42-2.191
		l-13.691-7.849c-1.054,1.71-2.938,2.853-5.093,2.853c-3.306,0-5.986-2.68-5.986-5.986s2.68-5.986,5.986-5.986
		c2.155,0,4.038,1.142,5.092,2.85l13.692-7.849c-0.267-0.679-0.419-1.415-0.419-2.188c0-3.307,2.681-5.986,5.986-5.986
		s5.986,2.68,5.986,5.986S55.643,197.973,52.337,197.973z M52.337,221.928c1.983,0,3.591-1.609,3.591-3.594
		c0-1.986-1.607-3.596-3.591-3.596s-3.591,1.609-3.591,3.596C48.746,220.318,50.354,221.928,52.337,221.928z M27.986,201.564
		c-1.983,0-3.591,1.609-3.591,3.596c0,1.984,1.607,3.595,3.591,3.595s3.591-1.61,3.591-3.595
		C31.577,203.174,29.969,201.564,27.986,201.564z M52.337,188.392c-1.983,0-3.591,1.609-3.591,3.595s1.607,3.595,3.591,3.595
		s3.591-1.609,3.591-3.595S54.32,188.392,52.337,188.392z"/>
</g>
</svg>
