<?xml version="1.0" encoding="utf-8"?>
<!-- Generator: Adobe Illustrator 15.0.0, SVG Export Plug-In . SVG Version: 6.00 Build 0)  -->
<!DOCTYPE svg PUBLIC "-//W3C//DTD SVG 1.1//EN" "http://www.w3.org/Graphics/SVG/1.1/DTD/svg11.dtd">
<svg version="1.1" id="Layer_1" xmlns="http://www.w3.org/2000/svg" xmlns:xlink="http://www.w3.org/1999/xlink" x="0px" y="0px"
	 width="52px" height="156px" viewBox="0 0 52 156" enable-background="new 0 0 52 156" xml:space="preserve">
<g>
	<circle fill="#2B323C" cx="26" cy="26" r="26"/>
	<path fill="#FAFAFA" d="M27.362,25.66l9.449-9.029c0.301-0.285,0.215-0.863-0.073-1.162c-0.284-0.3-0.924-0.484-1.222-0.197
		l-9.501,9.078l-9.406-9.15c-0.296-0.289-0.87-0.181-1.159,0.118c-0.288,0.296-0.449,0.942-0.15,1.231l9.354,9.101l-9.49,9.069
		c-0.3,0.284-0.147,0.933,0.139,1.231c0.286,0.301,0.859,0.415,1.16,0.128l9.54-9.116l9.472,9.214
		c0.299,0.29,0.938,0.112,1.228-0.185c0.29-0.298,0.383-0.873,0.084-1.162L27.362,25.66z"/>
</g>
<g>
	<circle fill="#2B323C" cx="26" cy="78" r="26"/>
	<path fill="#FAFAFA" d="M27.362,78.159l9.449-9.029c0.301-0.285,0.215-0.863-0.073-1.162c-0.284-0.299-0.924-0.484-1.222-0.197
		l-9.501,9.078l-9.406-9.15c-0.296-0.289-0.87-0.18-1.159,0.119c-0.288,0.295-0.449,0.941-0.15,1.23l9.354,9.102l-9.49,9.068
		c-0.3,0.284-0.147,0.933,0.139,1.231c0.286,0.301,0.859,0.415,1.16,0.128l9.54-9.115l9.472,9.214
		c0.299,0.29,0.938,0.112,1.228-0.185c0.29-0.298,0.383-0.873,0.084-1.162L27.362,78.159z"/>
	<circle opacity="0.15" fill="#FAFAFA" cx="26" cy="78" r="26"/>
	<path fill="#2A2A2A" d="M26,55c12.682,0,23,10.317,23,23s-10.318,23-23,23S3,90.683,3,78S13.318,55,26,55 M26,52
		C11.641,52,0,63.641,0,78s11.641,26,26,26s26-11.641,26-26S40.359,52,26,52L26,52z"/>
</g>
<g opacity="0.4">
	<circle fill="#2B323C" cx="26" cy="130" r="26"/>
	<path fill="#FAFAFA" d="M27.362,129.66l9.449-9.029c0.301-0.285,0.215-0.863-0.073-1.162c-0.284-0.301-0.924-0.484-1.222-0.197
		l-9.501,9.078l-9.406-9.15c-0.296-0.289-0.87-0.182-1.159,0.117c-0.288,0.297-0.449,0.943-0.15,1.232l9.354,9.1l-9.49,9.069
		c-0.3,0.284-0.147,0.933,0.139,1.231c0.286,0.301,0.859,0.415,1.16,0.128l9.54-9.116l9.472,9.215
		c0.299,0.29,0.938,0.112,1.228-0.185c0.29-0.298,0.383-0.873,0.084-1.162L27.362,129.66z"/>
</g>
</svg>
