<?xml version="1.0" encoding="utf-8"?>
<!-- Generator: Adobe Illustrator 15.0.0, SVG Export Plug-In . SVG Version: 6.00 Build 0)  -->
<!DOCTYPE svg PUBLIC "-//W3C//DTD SVG 1.1//EN" "http://www.w3.org/Graphics/SVG/1.1/DTD/svg11.dtd">
<svg version="1.1" id="Layer_4" xmlns="http://www.w3.org/2000/svg" xmlns:xlink="http://www.w3.org/1999/xlink" x="0px" y="0px"
	 width="68px" height="204px" viewBox="0 0 68 204" enable-background="new 0 0 68 204" xml:space="preserve">
<g>
	<circle fill="#474E57" cx="34" cy="34" r="34"/>
	<polygon fill="#FAFAFA" points="27.516,21.215 29.767,19 42.75,31.786 45,34 42.75,36.215 29.767,49 27.516,46.786 40.5,34 	"/>
</g>
<g>
	<circle fill="#474E57" cx="34" cy="102" r="34"/>
	<polygon opacity="0.8" fill="#FAFAFA" points="27.516,89.215 29.767,87 42.75,99.786 45,102 42.75,104.215 29.767,117 
		27.516,114.785 40.5,102 	"/>
	<circle opacity="0.2" fill="#FAFAFA" cx="34" cy="102" r="34"/>
</g>
<g opacity="0.4">
	<circle fill="#474E57" cx="34" cy="170" r="34"/>
	<polygon fill="#FAFAFA" points="27.516,157.215 29.767,155 42.75,167.785 45,170 42.75,172.215 29.767,185 27.516,182.785 
		40.5,170 	"/>
</g>
</svg>
