<?xml version="1.0" encoding="utf-8"?>
<!-- Generator: Adobe Illustrator 15.0.0, SVG Export Plug-In . SVG Version: 6.00 Build 0)  -->
<!DOCTYPE svg PUBLIC "-//W3C//DTD SVG 1.1//EN" "http://www.w3.org/Graphics/SVG/1.1/DTD/svg11.dtd">
<svg version="1.1" id="레이어_1" xmlns="http://www.w3.org/2000/svg" xmlns:xlink="http://www.w3.org/1999/xlink" x="0px"
	 y="0px" width="82px" height="246px" viewBox="0 0 82 246" enable-background="new 0 0 82 246" xml:space="preserve">
<g>
	<circle fill="#1CD2D2" cx="41" cy="41" r="41"/>
	<path fill="#FAFAFA" d="M41,31.984c1.408,0,13.539-0.25,13.539-3.528c0-2.226-5.859-2.54-9.949-2.797
		C44.57,24.338,43.797,23,42.453,23H39.23c-1.351,0-1.836,1.332-1.846,2.659c-4.072,0.269-9.92,0.751-9.92,2.94
		C27.464,31.877,39.593,31.984,41,31.984z"/>
	<path fill="#FAFAFA" d="M41,33.806c-7.533,0-13.539-1.483-13.539-2.997l2.814,24.717c0,1.515,4.691,3.507,10.725,3.507
		c6.035,0,10.753-2.014,10.753-3.528l2.785-24.695C54.539,32.322,48.535,33.806,41,33.806z"/>
</g>
<g>
	<circle fill="#1CD2D2" cx="41" cy="123" r="41"/>
	<circle opacity="0.45" fill="#FAFAFA" enable-background="new    " cx="41" cy="122.969" r="41"/>
	<path opacity="0.8" fill="#FAFAFA" enable-background="new    " d="M41,113.984c1.408,0,13.539-0.25,13.539-3.528
		c0-2.226-5.859-2.54-9.949-2.797c-0.02-1.321-0.791-2.659-2.137-2.659H39.23c-1.351,0-1.836,1.332-1.846,2.659
		c-4.072,0.269-9.92,0.751-9.92,2.94C27.464,113.877,39.593,113.984,41,113.984z"/>
	<path opacity="0.8" fill="#FAFAFA" enable-background="new    " d="M41,115.807c-7.533,0-13.539-1.483-13.539-2.998l2.814,24.716
		c0,1.517,4.691,3.509,10.725,3.509c6.035,0,10.753-2.015,10.753-3.528l2.785-24.694C54.539,114.322,48.535,115.807,41,115.807z"/>
</g>
<g opacity="0.4">
	<circle fill="#1CD2D2" cx="41" cy="205" r="41"/>
	<path fill="#FAFAFA" d="M41,195.984c1.408,0,13.539-0.25,13.539-3.528c0-2.226-5.859-2.54-9.949-2.797
		c-0.02-1.321-0.791-2.659-2.137-2.659H39.23c-1.351,0-1.836,1.332-1.846,2.659c-4.072,0.269-9.92,0.751-9.92,2.94
		C27.464,195.877,39.593,195.984,41,195.984z"/>
	<path fill="#FAFAFA" d="M41,197.807c-7.533,0-13.539-1.482-13.539-2.998l2.814,24.717c0,1.517,4.691,3.509,10.725,3.509
		c6.035,0,10.753-2.015,10.753-3.528l2.785-24.693C54.539,196.322,48.535,197.807,41,197.807z"/>
</g>
</svg>
