<?xml version="1.0" encoding="utf-8"?>
<!-- Generator: Adobe Illustrator 15.0.0, SVG Export Plug-In . SVG Version: 6.00 Build 0)  -->
<!DOCTYPE svg PUBLIC "-//W3C//DTD SVG 1.1//EN" "http://www.w3.org/Graphics/SVG/1.1/DTD/svg11.dtd">
<svg version="1.1" id="레이어_1" xmlns="http://www.w3.org/2000/svg" xmlns:xlink="http://www.w3.org/1999/xlink" x="0px"
	 y="0px" width="82px" height="246px" viewBox="0 0 82 246" enable-background="new 0 0 82 246" xml:space="preserve">
<g>
	<circle fill="#1CD2D2" cx="41" cy="41" r="41"/>
	<path fill="#FAFAFA" d="M51.395,48.482c-2.289,0-4.313,1.093-5.611,2.771l-15.597-9.222c0.222-0.685,0.353-1.409,0.353-2.167
		c0-0.471-0.062-0.926-0.149-1.372l15.703-8.619c1.304,1.46,3.193,2.391,5.308,2.391c3.929,0,7.108-3.185,7.108-7.111
		c0-3.926-3.184-7.11-7.108-7.11c-3.928,0-7.111,3.185-7.111,7.11c0,0.736,0.123,1.44,0.333,2.106l-15.423,8.464
		c-1.291-1.794-3.389-2.971-5.766-2.971c-3.93,0-7.113,3.186-7.113,7.111c0,3.928,3.185,7.111,7.113,7.111
		c2.088,0,3.959-0.909,5.26-2.344l15.801,9.343c-0.123,0.521-0.205,1.058-0.205,1.616c0,3.93,3.188,7.112,7.111,7.112
		c3.929,0,7.108-3.185,7.108-7.112C58.506,51.667,55.322,48.482,51.395,48.482z"/>
</g>
<g>
	<circle fill="#1CD2D2" cx="41" cy="123" r="41"/>
	<circle opacity="0.45" fill="#FAFAFA" enable-background="new    " cx="41" cy="123" r="41"/>
	<path opacity="0.8" fill="#FAFAFA" enable-background="new    " d="M51.395,130.482c-2.289,0-4.313,1.093-5.611,2.771
		l-15.597-9.224c0.222-0.685,0.353-1.407,0.353-2.167c0-0.471-0.062-0.926-0.149-1.371l15.703-8.619
		c1.304,1.46,3.193,2.391,5.308,2.391c3.929,0,7.108-3.185,7.108-7.111c0-3.926-3.184-7.109-7.108-7.109
		c-3.928,0-7.111,3.186-7.111,7.109c0,0.736,0.123,1.44,0.333,2.106l-15.423,8.464c-1.291-1.793-3.389-2.971-5.766-2.971
		c-3.93,0-7.113,3.186-7.113,7.111c0,3.928,3.185,7.112,7.113,7.112c2.088,0,3.959-0.91,5.26-2.346l15.801,9.344
		c-0.123,0.521-0.205,1.059-0.205,1.615c0,3.932,3.188,7.112,7.111,7.112c3.929,0,7.108-3.187,7.108-7.112
		C58.506,133.667,55.322,130.482,51.395,130.482z"/>
</g>
<g opacity="0.4">
	<circle fill="#1CD2D2" cx="41" cy="205" r="41"/>
	<path fill="#FAFAFA" d="M51.395,212.482c-2.289,0-4.313,1.093-5.611,2.771l-15.597-9.224c0.222-0.685,0.353-1.407,0.353-2.165
		c0-0.472-0.062-0.927-0.149-1.371l15.703-8.619c1.304,1.46,3.193,2.392,5.308,2.392c3.929,0,7.108-3.186,7.108-7.111
		c0-3.924-3.184-7.109-7.108-7.109c-3.928,0-7.111,3.186-7.111,7.109c0,0.736,0.123,1.438,0.333,2.105l-15.423,8.465
		c-1.291-1.793-3.389-2.972-5.766-2.972c-3.93,0-7.113,3.187-7.113,7.11c0,3.929,3.185,7.111,7.113,7.111
		c2.088,0,3.959-0.908,5.26-2.345l15.801,9.345c-0.123,0.521-0.205,1.058-0.205,1.614c0,3.931,3.188,7.112,7.111,7.112
		c3.929,0,7.108-3.186,7.108-7.112C58.506,215.667,55.322,212.482,51.395,212.482z"/>
</g>
</svg>
