<?xml version="1.0" encoding="utf-8"?>
<!-- Generator: Adobe Illustrator 15.0.0, SVG Export Plug-In . SVG Version: 6.00 Build 0)  -->
<!DOCTYPE svg PUBLIC "-//W3C//DTD SVG 1.1//EN" "http://www.w3.org/Graphics/SVG/1.1/DTD/svg11.dtd">
<svg version="1.1" id="Layer_4" xmlns="http://www.w3.org/2000/svg" xmlns:xlink="http://www.w3.org/1999/xlink" x="0px" y="0px"
	 width="68px" height="204px" viewBox="0 0 68 204" enable-background="new 0 0 68 204" xml:space="preserve">
<g>
	<path opacity="0.8" d="M34,2c17.645,0,32,14.355,32,32S51.645,66,34,66C16.355,66,2,51.645,2,34S16.355,2,34,2"/>
	<path opacity="0.6" fill="#FFFFFF" d="M34,2c17.645,0,32,14.355,32,32S51.645,66,34,66C16.355,66,2,51.645,2,34S16.355,2,34,2
		 M34,0C15.222,0,0,15.222,0,34s15.222,34,34,34c18.777,0,34-15.222,34-34S52.777,0,34,0L34,0z"/>
	<path fill-rule="evenodd" clip-rule="evenodd" fill="#FFFFFF" d="M45.678,34.002l-1.416,1.415l-0.002-0.003L29.415,50.261
		L28,48.846L42.846,34L28,19.153l1.414-1.414L44.26,32.585l0.004-0.002l1.414,1.414L45.674,34L45.678,34.002z"/>
</g>
<g>
	<path opacity="0.8" d="M34,70c17.645,0,32,14.355,32,32c0,17.645-14.355,32-32,32c-17.645,0-32-14.355-32-32
		C2,84.355,16.355,70,34,70"/>
	<path opacity="0.6" fill="#FFFFFF" d="M34,70c17.645,0,32,14.355,32,32c0,17.645-14.355,32-32,32c-17.645,0-32-14.355-32-32
		C2,84.355,16.355,70,34,70 M34,68C15.222,68,0,83.222,0,102c0,18.777,15.222,34,34,34c18.777,0,34-15.223,34-34
		C68,83.222,52.777,68,34,68L34,68z"/>
	<path fill-rule="evenodd" clip-rule="evenodd" fill="#FFFFFF" d="M45.678,102.002l-1.416,1.415l-0.002-0.003l-14.845,14.847
		L28,116.846L42.846,102L28,87.153l1.414-1.414l14.846,14.846l0.004-0.002l1.414,1.414l-0.004,0.002L45.678,102.002z"/>
	<path opacity="0.4" fill="#FFFFFF" d="M34,68L34,68C15.222,68,0,83.222,0,102c0,18.777,15.222,34,34,34c18.777,0,34-15.223,34-34
		C68,83.222,52.777,68,34,68"/>
</g>
<g opacity="0.4">
	<path opacity="0.8" d="M34,137.869c17.645,0,32,14.355,32,32s-14.355,32-32,32c-17.645,0-32-14.355-32-32
		S16.355,137.869,34,137.869"/>
	<path opacity="0.6" fill="#FFFFFF" d="M34,137.869c17.645,0,32,14.355,32,32s-14.355,32-32,32c-17.645,0-32-14.355-32-32
		S16.355,137.869,34,137.869 M34,135.869c-18.778,0-34,15.223-34,34s15.222,34,34,34c18.777,0,34-15.223,34-34
		S52.777,135.869,34,135.869L34,135.869z"/>
	<path fill-rule="evenodd" clip-rule="evenodd" fill="#FFFFFF" d="M45.678,170.002l-1.416,1.415l-0.002-0.003l-14.845,14.847
		L28,184.846L42.846,170L28,155.153l1.414-1.414l14.846,14.846l0.004-0.002l1.414,1.414l-0.004,0.002L45.678,170.002z"/>
</g>
</svg>
