<?xml version="1.0" encoding="utf-8"?>
<!-- Generator: Adobe Illustrator 15.0.0, SVG Export Plug-In . SVG Version: 6.00 Build 0)  -->
<!DOCTYPE svg PUBLIC "-//W3C//DTD SVG 1.1//EN" "http://www.w3.org/Graphics/SVG/1.1/DTD/svg11.dtd">
<svg version="1.1" id="Layer_4" xmlns="http://www.w3.org/2000/svg" xmlns:xlink="http://www.w3.org/1999/xlink" x="0px" y="0px"
	 width="68px" height="204px" viewBox="0 0 68 204" enable-background="new 0 0 68 204" xml:space="preserve">
<g>
	<circle fill="#474E57" cx="34" cy="34" r="34"/>
	<polygon fill="#FAFAFA" points="40.484,21.215 38.233,19 25.25,31.786 23,34 25.25,36.215 38.233,49 40.484,46.786 27.5,34 	"/>
</g>
<g>
	<circle fill="#474E57" cx="34" cy="102" r="34"/>
	<polygon opacity="0.8" fill="#FAFAFA" points="40.484,89.215 38.233,87 25.25,99.786 23,102 25.25,104.215 38.233,117 
		40.484,114.785 27.5,102 	"/>
	<circle opacity="0.2" fill="#FAFAFA" cx="34" cy="102" r="34"/>
</g>
<g opacity="0.4">
	<circle fill="#474E57" cx="34" cy="170" r="34"/>
	<polygon fill="#FAFAFA" points="40.484,157.215 38.233,155 25.25,167.785 23,170 25.25,172.215 38.233,185 40.484,182.785 
		27.5,170 	"/>
</g>
</svg>
