<?xml version="1.0" encoding="utf-8"?>
<!-- Generator: Adobe Illustrator 15.0.0, SVG Export Plug-In . SVG Version: 6.00 Build 0)  -->
<!DOCTYPE svg PUBLIC "-//W3C//DTD SVG 1.1//EN" "http://www.w3.org/Graphics/SVG/1.1/DTD/svg11.dtd">
<svg version="1.1" id="Layer_2" xmlns="http://www.w3.org/2000/svg" xmlns:xlink="http://www.w3.org/1999/xlink" x="0px" y="0px"
	 width="60px" height="360px" viewBox="0 0 60 360" enable-background="new 0 0 60 360" xml:space="preserve">
<g id="Layer_1">
</g>
<g opacity="0.4">
	<path fill="#282828" d="M30,136.238c7.581,0,13.75,6.152,13.75,13.738c0,7.587-6.17,13.786-13.75,13.786s-13.75-6.199-13.75-13.786
		C16.25,142.391,22.42,136.238,30,136.238z M30,159.738c5.376,0,9.75-4.396,9.75-9.762c0-5.366-4.374-9.761-9.75-9.761
		s-9.75,4.395-9.75,9.761C20.25,155.344,24.624,159.738,30,159.738z"/>
</g>
<g>
	<path opacity="0.8" fill="#282828" d="M30,76.237c7.581,0,13.75,6.153,13.75,13.739c0,7.587-6.169,13.74-13.75,13.74
		c-7.58,0-13.75-6.153-13.75-13.74C16.25,82.391,22.42,76.237,30,76.237z M30,99.738c5.376,0,9.75-4.396,9.75-9.762
		c0-5.365-4.374-9.761-9.75-9.761s-9.75,4.396-9.75,9.761C20.25,95.343,24.624,99.738,30,99.738z"/>
</g>
<g>
	<path fill="#282828" d="M30,16.376c7.581,0,13.75,6.152,13.75,13.74c0,7.586-6.169,13.738-13.75,13.738
		c-7.58,0-13.75-6.152-13.75-13.738C16.25,22.528,22.42,16.376,30,16.376z M30,39.876c5.376,0,9.75-4.395,9.75-9.76
		c0-5.367-4.374-9.762-9.75-9.762s-9.75,4.395-9.75,9.762C20.25,35.481,24.624,39.876,30,39.876z"/>
</g>
<g opacity="0.4">
	<rect x="27.5" y="318.088" fill="#FFFFFF" width="4.999" height="23.824"/>
</g>
<g>
	<rect x="27.5" y="258.088" fill="#FFFFFF" width="5" height="23.824"/>
</g>
<g>
	<rect x="27.5" y="198.088" fill="#FFFFFF" width="5" height="23.824"/>
</g>
</svg>
