<?xml version="1.0" encoding="utf-8"?>
<!-- Generator: Adobe Illustrator 15.0.0, SVG Export Plug-In . SVG Version: 6.00 Build 0)  -->
<!DOCTYPE svg PUBLIC "-//W3C//DTD SVG 1.1//EN" "http://www.w3.org/Graphics/SVG/1.1/DTD/svg11.dtd">
<svg version="1.1" id="Layer_1" xmlns="http://www.w3.org/2000/svg" xmlns:xlink="http://www.w3.org/1999/xlink" x="0px" y="0px"
	 width="60px" height="360px" viewBox="0 0 60 360" enable-background="new 0 0 60 360" xml:space="preserve">
<g>
	<path fill="#282828" d="M17.785,22.368c1.016,0,1.955,0.181,2.817,0.544c0.86,0.363,1.6,0.877,2.22,1.541
		c0.619,0.664,1.103,1.485,1.453,2.465c0.349,0.978,0.524,2.056,0.524,3.23c0,1.136-0.17,2.186-0.509,3.15
		c-0.339,0.964-0.813,1.788-1.421,2.469c-0.608,0.682-1.349,1.213-2.22,1.594c-0.873,0.381-1.826,0.569-2.864,0.569
		c-1.384,0-2.609-0.328-3.674-0.986c-1.065-0.655-1.889-1.573-2.469-2.754c-0.581-1.179-0.873-2.525-0.873-4.042
		c0-1.514,0.292-2.861,0.873-4.04c0.58-1.179,1.404-2.097,2.469-2.757C15.176,22.695,16.401,22.368,17.785,22.368 M13.728,30.148
		c0,1.592,0.371,2.877,1.115,3.855c0.743,0.979,1.724,1.469,2.942,1.469c1.217,0,2.197-0.49,2.941-1.469
		c0.743-0.979,1.114-2.264,1.114-3.855c0-1.59-0.371-2.875-1.114-3.854c-0.744-0.979-1.725-1.469-2.941-1.469
		c-1.219,0-2.199,0.49-2.942,1.469C14.099,27.273,13.728,28.559,13.728,30.148"/>
	<polygon fill="#282828" points="27.466,37.599 27.466,22.7 37.283,22.7 37.283,25.158 30.341,25.158 30.341,28.873 36.545,28.873
		36.545,31.333 30.341,31.333 30.341,37.599 	"/>
	<polygon fill="#282828" points="39.639,37.599 39.639,22.7 49.454,22.7 49.454,25.158 42.512,25.158 42.512,28.873 48.719,28.873
		48.719,31.333 42.512,31.333 42.512,37.599 	"/>
</g>
<g>
	<path opacity="0.8" fill="#282828" d="M17.785,82.368c1.016,0,1.955,0.181,2.817,0.544c0.86,0.363,1.6,0.877,2.22,1.541
		c0.619,0.664,1.103,1.485,1.453,2.465c0.349,0.978,0.524,2.056,0.524,3.23c0,1.136-0.17,2.186-0.509,3.15s-0.813,1.788-1.421,2.469
		c-0.608,0.682-1.349,1.213-2.22,1.594c-0.873,0.381-1.826,0.569-2.864,0.569c-1.384,0-2.609-0.328-3.674-0.986
		c-1.065-0.655-1.889-1.573-2.469-2.754c-0.581-1.179-0.873-2.525-0.873-4.042c0-1.514,0.292-2.861,0.873-4.04
		c0.58-1.179,1.404-2.097,2.469-2.757C15.176,82.695,16.401,82.368,17.785,82.368 M13.728,90.148c0,1.592,0.371,2.877,1.115,3.855
		c0.743,0.979,1.724,1.469,2.942,1.469c1.217,0,2.197-0.49,2.941-1.469c0.743-0.979,1.114-2.264,1.114-3.855
		c0-1.59-0.371-2.875-1.114-3.854c-0.744-0.979-1.725-1.469-2.941-1.469c-1.219,0-2.199,0.49-2.942,1.469
		C14.099,87.273,13.728,88.559,13.728,90.148"/>
	<polygon opacity="0.8" fill="#282828" points="27.466,97.599 27.466,82.7 37.283,82.7 37.283,85.158 30.341,85.158 30.341,88.873
		36.545,88.873 36.545,91.333 30.341,91.333 30.341,97.599 	"/>
	<polygon opacity="0.8" fill="#282828" points="39.639,97.599 39.639,82.7 49.454,82.7 49.454,85.158 42.512,85.158 42.512,88.873
		48.719,88.873 48.719,91.333 42.512,91.333 42.512,97.599 	"/>
</g>
<g opacity="0.4">
	<path fill="#282828" d="M17.785,142.368c1.016,0,1.955,0.181,2.817,0.544c0.86,0.363,1.6,0.877,2.22,1.541
		c0.619,0.664,1.103,1.485,1.453,2.465c0.349,0.978,0.524,2.056,0.524,3.23c0,1.136-0.17,2.186-0.509,3.15s-0.813,1.788-1.421,2.469
		c-0.608,0.682-1.349,1.213-2.22,1.594c-0.873,0.381-1.826,0.569-2.864,0.569c-1.384,0-2.609-0.328-3.674-0.986
		c-1.065-0.655-1.889-1.573-2.469-2.754c-0.581-1.179-0.873-2.525-0.873-4.042c0-1.514,0.292-2.861,0.873-4.04
		c0.58-1.179,1.404-2.097,2.469-2.757C15.176,142.695,16.401,142.368,17.785,142.368 M13.728,150.148
		c0,1.592,0.371,2.877,1.115,3.855c0.743,0.979,1.724,1.469,2.942,1.469c1.217,0,2.197-0.49,2.941-1.469
		c0.743-0.979,1.114-2.264,1.114-3.855c0-1.59-0.371-2.875-1.114-3.854c-0.744-0.979-1.725-1.469-2.941-1.469
		c-1.219,0-2.199,0.49-2.942,1.469C14.099,147.273,13.728,148.559,13.728,150.148"/>
	<polygon fill="#282828" points="27.466,157.599 27.466,142.7 37.283,142.7 37.283,145.158 30.341,145.158 30.341,148.873
		36.545,148.873 36.545,151.333 30.341,151.333 30.341,157.599 	"/>
	<polygon fill="#282828" points="39.639,157.599 39.639,142.7 49.454,142.7 49.454,145.158 42.512,145.158 42.512,148.873
		48.719,148.873 48.719,151.333 42.512,151.333 42.512,157.599 	"/>
</g>
<g>
	<path fill="#FFFFFF" d="M22.415,202.367c1.017,0,1.955,0.182,2.817,0.545c0.86,0.363,1.6,0.877,2.22,1.541
		c0.619,0.664,1.103,1.484,1.453,2.465c0.348,0.977,0.523,2.057,0.523,3.23c0,1.136-0.17,2.186-0.508,3.146
		c-0.339,0.97-0.813,1.788-1.421,2.474c-0.609,0.682-1.349,1.213-2.22,1.594c-0.873,0.381-1.826,0.57-2.864,0.57
		c-1.384,0-2.608-0.33-3.674-0.986c-1.065-0.656-1.889-1.574-2.469-2.756c-0.581-1.179-0.873-2.524-0.873-4.041
		c0-1.519,0.292-2.861,0.873-4.039c0.58-1.18,1.404-2.101,2.469-2.758C19.807,202.695,21.031,202.367,22.415,202.367
		 M18.357,210.148c0,1.592,0.371,2.877,1.115,3.854c0.743,0.979,1.724,1.471,2.942,1.471c1.217,0,2.197-0.49,2.941-1.471
		c0.743-0.979,1.114-2.266,1.114-3.854c0-1.59-0.371-2.875-1.114-3.854c-0.744-0.979-1.724-1.469-2.941-1.469
		c-1.219,0-2.199,0.489-2.942,1.469C18.729,207.273,18.357,208.559,18.357,210.148"/>
	<polygon fill="#FFFFFF" points="32.098,217.6 32.098,202.7 34.971,202.7 40.82,212.464 41.311,213.574 41.372,213.563
		41.133,212.359 41.133,202.7 44.009,202.7 44.009,217.6 41.08,217.6 35.322,208.002 34.836,206.9 34.795,206.912 34.971,208.126
		34.971,217.6 	"/>
</g>
<g>
	<path fill="#FFFFFF" d="M22.415,262.367c1.017,0,1.955,0.182,2.817,0.545c0.86,0.363,1.6,0.877,2.22,1.541
		c0.619,0.664,1.103,1.484,1.453,2.465c0.348,0.977,0.523,2.057,0.523,3.23c0,1.136-0.17,2.186-0.508,3.146
		c-0.339,0.97-0.813,1.788-1.421,2.474c-0.609,0.682-1.349,1.213-2.22,1.594c-0.873,0.38-1.826,0.57-2.864,0.57
		c-1.384,0-2.608-0.33-3.674-0.986c-1.065-0.656-1.889-1.574-2.469-2.756c-0.581-1.182-0.873-2.524-0.873-4.041
		c0-1.519,0.292-2.861,0.873-4.039c0.58-1.186,1.404-2.099,2.469-2.758C19.807,262.695,21.031,262.367,22.415,262.367
		 M18.357,270.148c0,1.592,0.371,2.877,1.115,3.854c0.743,0.979,1.724,1.471,2.942,1.471c1.217,0,2.197-0.49,2.941-1.471
		c0.743-0.979,1.114-2.266,1.114-3.854c0-1.59-0.371-2.877-1.114-3.854c-0.744-0.979-1.724-1.469-2.941-1.469
		c-1.219,0-2.199,0.489-2.942,1.469C18.729,267.271,18.357,268.559,18.357,270.148"/>
	<polygon fill="#FFFFFF" points="32.098,277.6 32.098,262.7 34.971,262.7 40.82,272.464 41.311,273.574 41.372,273.563
		41.133,272.359 41.133,262.7 44.009,262.7 44.009,277.6 41.08,277.6 35.322,268.001 34.836,266.9 34.795,266.912 34.971,268.126
		34.971,277.6 	"/>
</g>
<g opacity="0.4">
	<path fill="#FFFFFF" d="M22.415,322.367c1.017,0,1.955,0.182,2.817,0.545c0.86,0.363,1.6,0.877,2.22,1.541
		c0.619,0.664,1.103,1.484,1.453,2.465c0.348,0.977,0.523,2.057,0.523,3.23c0,1.136-0.17,2.186-0.508,3.146
		c-0.339,0.97-0.813,1.788-1.421,2.474c-0.609,0.682-1.349,1.213-2.22,1.594c-0.873,0.38-1.826,0.57-2.864,0.57
		c-1.384,0-2.608-0.33-3.674-0.986c-1.065-0.656-1.889-1.574-2.469-2.756c-0.581-1.182-0.873-2.524-0.873-4.041
		c0-1.519,0.292-2.861,0.873-4.039c0.58-1.186,1.404-2.099,2.469-2.758C19.807,322.695,21.031,322.367,22.415,322.367
		 M18.357,330.148c0,1.592,0.371,2.877,1.115,3.854c0.743,0.979,1.724,1.471,2.942,1.471c1.217,0,2.197-0.49,2.941-1.471
		c0.743-0.979,1.114-2.266,1.114-3.854c0-1.59-0.371-2.877-1.114-3.854c-0.744-0.979-1.724-1.469-2.941-1.469
		c-1.219,0-2.199,0.489-2.942,1.469C18.729,327.271,18.357,328.559,18.357,330.148"/>
	<polygon fill="#FFFFFF" points="32.098,337.6 32.098,322.7 34.971,322.7 40.82,332.464 41.311,333.574 41.372,333.563
		41.133,332.359 41.133,322.7 44.009,322.7 44.009,337.6 41.08,337.6 35.322,328.001 34.836,326.9 34.795,326.912 34.971,328.126
		34.971,337.6 	"/>
</g>
</svg>
