<?xml version="1.0" encoding="utf-8"?>
<!-- Generator: Adobe Illustrator 15.0.0, SVG Export Plug-In . SVG Version: 6.00 Build 0)  -->
<!DOCTYPE svg PUBLIC "-//W3C//DTD SVG 1.1//EN" "http://www.w3.org/Graphics/SVG/1.1/DTD/svg11.dtd">
<svg version="1.1" id="Layer_1" xmlns="http://www.w3.org/2000/svg" xmlns:xlink="http://www.w3.org/1999/xlink" x="0px" y="0px"
	 width="48px" height="288px" viewBox="0 0 48 288" enable-background="new 0 0 48 288" xml:space="preserve">
<g>
	<path fill="#FFFFFF" d="M17.932,161.895c0.813,0,1.564,0.146,2.254,0.438c0.688,0.29,1.281,0.701,1.776,1.229
		c0.495,0.53,0.882,1.188,1.162,1.975c0.279,0.779,0.419,1.646,0.419,2.585c0,0.905-0.136,1.748-0.407,2.521
		c-0.271,0.771-0.65,1.432-1.137,1.978c-0.487,0.545-1.079,0.97-1.776,1.272c-0.697,0.304-1.461,0.455-2.291,0.455
		c-1.107,0-2.086-0.264-2.938-0.787s-1.511-1.262-1.976-2.205c-0.465-0.94-0.697-2.021-0.697-3.23s0.232-2.289,0.697-3.23
		c0.465-0.942,1.124-1.68,1.976-2.203C15.846,162.159,16.825,161.895,17.932,161.895z M14.686,168.119
		c0,1.273,0.297,2.301,0.892,3.084c0.595,0.783,1.379,1.175,2.354,1.175s1.758-0.392,2.354-1.175
		c0.595-0.783,0.892-1.811,0.892-3.084c0-1.271-0.297-2.301-0.892-3.083c-0.595-0.783-1.379-1.175-2.354-1.175
		s-1.758,0.392-2.354,1.175C14.983,165.818,14.686,166.848,14.686,168.119z"/>
	<path fill="#FFFFFF" d="M25.678,174.079V162.16h2.299l4.686,7.811l0.391,0.889l0.053-0.008l-0.19-0.963v-7.729h2.3v11.919h-2.342
		l-4.605-7.679l-0.391-0.879l-0.033,0.008l0.141,0.972v7.578H25.678L25.678,174.079z"/>
</g>
<g>
	<path opacity="0.8" fill="#FFFFFF" d="M17.932,209.895c0.813,0,1.564,0.146,2.254,0.438c0.688,0.29,1.281,0.701,1.776,1.229
		c0.495,0.53,0.882,1.188,1.162,1.975c0.279,0.779,0.419,1.646,0.419,2.585c0,0.905-0.136,1.748-0.407,2.521
		c-0.271,0.771-0.65,1.432-1.137,1.978c-0.487,0.545-1.079,0.97-1.776,1.272c-0.697,0.304-1.461,0.455-2.291,0.455
		c-1.107,0-2.086-0.264-2.938-0.787s-1.511-1.262-1.976-2.205c-0.465-0.94-0.697-2.021-0.697-3.23s0.232-2.289,0.697-3.23
		c0.465-0.942,1.124-1.68,1.976-2.203C15.846,210.159,16.825,209.895,17.932,209.895z M14.686,216.119
		c0,1.273,0.297,2.301,0.892,3.084c0.595,0.783,1.379,1.175,2.354,1.175s1.758-0.392,2.354-1.175
		c0.595-0.783,0.892-1.811,0.892-3.084c0-1.271-0.297-2.301-0.892-3.083c-0.595-0.783-1.379-1.175-2.354-1.175
		s-1.758,0.392-2.354,1.175C14.983,213.818,14.686,214.848,14.686,216.119z"/>
	<path opacity="0.8" fill="#FFFFFF" d="M25.678,222.079V210.16h2.299l4.686,7.811l0.391,0.889l0.053-0.008l-0.19-0.963v-7.729h2.3
		v11.919h-2.342l-4.605-7.679l-0.391-0.879l-0.033,0.008l0.141,0.972v7.578H25.678L25.678,222.079z"/>
</g>
<g opacity="0.4">
	<path fill="#FFFFFF" d="M17.932,257.895c0.813,0,1.564,0.146,2.254,0.438c0.688,0.29,1.281,0.7,1.776,1.229
		c0.495,0.53,0.882,1.188,1.162,1.975c0.279,0.779,0.419,1.646,0.419,2.585c0,0.905-0.136,1.748-0.407,2.521
		c-0.271,0.771-0.65,1.431-1.137,1.977s-1.079,0.971-1.776,1.273c-0.697,0.303-1.461,0.455-2.291,0.455
		c-1.107,0-2.086-0.264-2.938-0.787s-1.511-1.262-1.976-2.205c-0.465-0.94-0.697-2.021-0.697-3.23s0.232-2.289,0.697-3.23
		c0.465-0.942,1.124-1.68,1.976-2.203C15.846,258.158,16.825,257.895,17.932,257.895z M14.686,264.119
		c0,1.273,0.297,2.301,0.892,3.084c0.595,0.783,1.379,1.175,2.354,1.175s1.758-0.392,2.354-1.175
		c0.595-0.783,0.892-1.811,0.892-3.084c0-1.271-0.297-2.301-0.892-3.083c-0.595-0.783-1.379-1.175-2.354-1.175
		s-1.758,0.392-2.354,1.175C14.983,261.818,14.686,262.848,14.686,264.119z"/>
	<path fill="#FFFFFF" d="M25.678,270.079V258.16h2.299l4.686,7.811l0.391,0.889l0.053-0.008l-0.19-0.963v-7.729h2.3v11.919h-2.342
		l-4.605-7.679l-0.391-0.879l-0.033,0.008l0.141,0.972v7.578H25.678L25.678,270.079z"/>
</g>
<g>
	<path fill="#282828" d="M14.228,17.895c0.813,0,1.564,0.145,2.254,0.436c0.688,0.29,1.281,0.701,1.776,1.232
		c0.495,0.531,0.882,1.188,1.162,1.972c0.279,0.782,0.419,1.645,0.419,2.585c0,0.908-0.136,1.748-0.407,2.52
		s-0.65,1.431-1.137,1.976c-0.487,0.545-1.079,0.97-1.776,1.274c-0.697,0.304-1.461,0.456-2.291,0.456
		c-1.107,0-2.086-0.263-2.938-0.788s-1.511-1.26-1.976-2.204c-0.465-0.943-0.697-2.021-0.697-3.233c0-1.211,0.232-2.289,0.697-3.232
		c0.465-0.943,1.124-1.678,1.976-2.204S13.121,17.895,14.228,17.895z M10.982,24.119c0,1.273,0.297,2.301,0.892,3.084
		c0.595,0.783,1.379,1.175,2.354,1.175s1.758-0.392,2.354-1.175c0.595-0.783,0.892-1.811,0.892-3.084
		c0-1.272-0.297-2.301-0.892-3.083c-0.595-0.783-1.379-1.175-2.354-1.175s-1.758,0.392-2.354,1.175
		C11.279,21.818,10.982,22.847,10.982,24.119z"/>
	<path fill="#282828" d="M21.973,30.079V18.16h7.853v1.967h-5.554v2.972h4.964v1.968h-4.964v5.013L21.973,30.079L21.973,30.079z"/>
	<path fill="#282828" d="M31.711,30.079V18.16h7.854v1.967H34.01v2.972h4.965v1.968H34.01v5.013L31.711,30.079L31.711,30.079z"/>
</g>
<g>
	<path opacity="0.8" fill="#282828" d="M14.228,65.895c0.813,0,1.564,0.145,2.254,0.436c0.688,0.29,1.281,0.701,1.776,1.232
		c0.495,0.531,0.882,1.188,1.162,1.972c0.279,0.782,0.419,1.645,0.419,2.585c0,0.908-0.136,1.748-0.407,2.52
		s-0.65,1.431-1.137,1.976c-0.487,0.545-1.079,0.97-1.776,1.274c-0.697,0.304-1.461,0.456-2.291,0.456
		c-1.107,0-2.086-0.263-2.938-0.788s-1.511-1.26-1.976-2.204c-0.465-0.943-0.697-2.021-0.697-3.233c0-1.211,0.232-2.289,0.697-3.232
		c0.465-0.943,1.124-1.678,1.976-2.204S13.121,65.895,14.228,65.895z M10.982,72.119c0,1.273,0.297,2.301,0.892,3.084
		c0.595,0.783,1.379,1.175,2.354,1.175s1.758-0.392,2.354-1.175c0.595-0.783,0.892-1.811,0.892-3.084
		c0-1.272-0.297-2.301-0.892-3.083c-0.595-0.783-1.379-1.175-2.354-1.175s-1.758,0.392-2.354,1.175
		C11.279,69.818,10.982,70.847,10.982,72.119z"/>
	<path opacity="0.8" fill="#282828" d="M21.973,78.079V66.16h7.853v1.967h-5.554v2.972h4.964v1.968h-4.964v5.013L21.973,78.079
		L21.973,78.079z"/>
	<path opacity="0.8" fill="#282828" d="M31.711,78.079V66.16h7.854v1.967H34.01v2.972h4.965v1.968H34.01v5.013L31.711,78.079
		L31.711,78.079z"/>
</g>
<g opacity="0.4">
	<path fill="#282828" d="M14.228,113.895c0.813,0,1.564,0.145,2.254,0.436c0.688,0.29,1.281,0.701,1.776,1.232
		c0.495,0.531,0.882,1.188,1.162,1.972c0.279,0.782,0.419,1.645,0.419,2.585c0,0.908-0.136,1.748-0.407,2.52
		s-0.65,1.431-1.137,1.976c-0.487,0.545-1.079,0.97-1.776,1.274c-0.697,0.304-1.461,0.456-2.291,0.456
		c-1.107,0-2.086-0.263-2.938-0.788s-1.511-1.26-1.976-2.204c-0.465-0.943-0.697-2.021-0.697-3.233c0-1.211,0.232-2.289,0.697-3.232
		c0.465-0.943,1.124-1.678,1.976-2.204S13.121,113.895,14.228,113.895z M10.982,120.119c0,1.273,0.297,2.301,0.892,3.084
		c0.595,0.783,1.379,1.175,2.354,1.175s1.758-0.392,2.354-1.175c0.595-0.783,0.892-1.811,0.892-3.084
		c0-1.272-0.297-2.301-0.892-3.083c-0.595-0.783-1.379-1.175-2.354-1.175s-1.758,0.392-2.354,1.175
		C11.279,117.818,10.982,118.847,10.982,120.119z"/>
	<path fill="#282828" d="M21.973,126.079V114.16h7.853v1.967h-5.554v2.972h4.964v1.968h-4.964v5.013L21.973,126.079L21.973,126.079z
		"/>
	<path fill="#282828" d="M31.711,126.079V114.16h7.854v1.967H34.01v2.972h4.965v1.968H34.01v5.013L31.711,126.079L31.711,126.079z"
		/>
</g>
</svg>
