<?xml version="1.0" encoding="utf-8"?>
<!-- Generator: Adobe Illustrator 15.0.0, SVG Export Plug-In . SVG Version: 6.00 Build 0)  -->
<!DOCTYPE svg PUBLIC "-//W3C//DTD SVG 1.1//EN" "http://www.w3.org/Graphics/SVG/1.1/DTD/svg11.dtd">
<svg version="1.1" id="Layer_1" xmlns="http://www.w3.org/2000/svg" xmlns:xlink="http://www.w3.org/1999/xlink" x="0px" y="0px"
	 width="48px" height="240px" viewBox="0 0 48 240" enable-background="new 0 0 48 240" xml:space="preserve">
<g>
	<g>
		<circle fill="#525D78" cx="24" cy="24" r="22"/>
	</g>
	<path fill="#4D5770" d="M24,3c11.579,0,21,9.42,21,21s-9.421,21-21,21C12.42,45,3,35.58,3,24S12.42,3,24,3 M24,2
		C11.85,2,2,11.85,2,24s9.85,22,22,22s22-9.85,22-22S36.15,2,24,2L24,2z"/>
	<path fill="#FFFFFF" d="M36,25.814v-3.55l-3.135-0.5c-0.219-0.867-0.562-1.682-1.009-2.431l2.132-2.833l-2.517-2.51l-2.841,2.127
		c-0.752-0.447-1.569-0.787-2.438-1.006L25.691,12h-3.558l-0.502,3.112c-0.869,0.219-1.687,0.559-2.438,1.006l-2.841-2.126
		l-2.517,2.51l2.132,2.833c-0.447,0.749-0.789,1.563-1.009,2.431L12,22.264v3.55l2.958,0.5c0.22,0.865,0.562,1.682,1.009,2.43
		l-2.132,2.834l2.517,2.509l2.841-2.126c0.75,0.445,1.569,0.787,2.438,1.007L22.133,36h3.558l0.502-3.033
		c0.868-0.22,1.687-0.561,2.438-1.006l2.841,2.125l2.517-2.509l-2.132-2.834c0.448-0.749,0.79-1.565,1.009-2.43L36,25.814z
		 M23.913,29.195c-2.856,0-5.172-2.308-5.172-5.157c0-2.848,2.316-5.155,5.172-5.155c2.854,0,5.17,2.308,5.17,5.155
		C29.083,26.887,26.768,29.195,23.913,29.195z"/>
</g>
<g opacity="0.6">
	<g>
		<circle fill="#525D78" cx="24" cy="168" r="22"/>
	</g>
	<path fill="#4D5770" d="M24,147c11.579,0,21,9.42,21,21s-9.421,21-21,21c-11.58,0-21-9.42-21-21S12.42,147,24,147 M24,146
		c-12.15,0-22,9.85-22,22s9.85,22,22,22s22-9.85,22-22S36.15,146,24,146L24,146z"/>
	<path fill="#FFFFFF" d="M36,169.814v-3.551l-3.135-0.499c-0.219-0.867-0.562-1.683-1.009-2.431l2.132-2.833l-2.517-2.511
		l-2.841,2.127c-0.752-0.446-1.569-0.787-2.438-1.006L25.691,156h-3.558l-0.502,3.111c-0.869,0.219-1.687,0.56-2.438,1.006
		l-2.841-2.126l-2.517,2.51l2.132,2.833c-0.447,0.748-0.789,1.563-1.009,2.432L12,166.264v3.551l2.958,0.499
		c0.22,0.865,0.562,1.682,1.009,2.431l-2.132,2.834l2.517,2.509l2.841-2.126c0.75,0.445,1.569,0.787,2.438,1.006L22.133,180h3.558
		l0.502-3.033c0.868-0.219,1.687-0.561,2.438-1.006l2.841,2.126l2.517-2.509l-2.132-2.834c0.448-0.749,0.79-1.565,1.009-2.431
		L36,169.814z M23.913,173.195c-2.856,0-5.172-2.309-5.172-5.156s2.316-5.156,5.172-5.156c2.854,0,5.17,2.309,5.17,5.156
		S26.768,173.195,23.913,173.195z"/>
</g>
<g>
	<g>
		<circle fill="#525D78" cx="24" cy="120" r="22"/>
	</g>
	<path fill="#FFFFFF" d="M36,121.814v-3.551l-3.135-0.499c-0.219-0.867-0.562-1.682-1.009-2.431l2.132-2.833l-2.517-2.51
		l-2.841,2.127c-0.752-0.447-1.569-0.787-2.438-1.006L25.691,108h-3.558l-0.502,3.112c-0.869,0.219-1.687,0.559-2.438,1.006
		l-2.841-2.126l-2.517,2.51l2.132,2.833c-0.447,0.749-0.789,1.563-1.009,2.431L12,118.264v3.551l2.958,0.499
		c0.22,0.865,0.562,1.682,1.009,2.431l-2.132,2.834l2.517,2.509l2.841-2.126c0.75,0.445,1.569,0.787,2.438,1.006L22.133,132h3.558
		l0.502-3.033c0.868-0.219,1.687-0.561,2.438-1.006l2.841,2.126l2.517-2.509l-2.132-2.834c0.448-0.749,0.79-1.565,1.009-2.431
		L36,121.814z M23.913,125.195c-2.856,0-5.172-2.309-5.172-5.156c0-2.848,2.316-5.156,5.172-5.156c2.854,0,5.17,2.308,5.17,5.156
		C29.083,122.887,26.768,125.195,23.913,125.195z"/>
	<path fill="#1DDBD9" d="M24,101c10.477,0,19,8.523,19,19s-8.523,19-19,19s-19-8.523-19-19S13.523,101,24,101 M24,98
		c-12.15,0-22,9.85-22,22s9.85,22,22,22s22-9.85,22-22S36.15,98,24,98L24,98z"/>
</g>
<g opacity="0.6">
	<g>
		<circle fill="#525D78" cx="24" cy="216" r="22"/>
	</g>
	<path fill="#FFFFFF" d="M36,217.814v-3.551l-3.135-0.499c-0.219-0.867-0.562-1.683-1.009-2.431l2.132-2.833l-2.517-2.511
		l-2.841,2.127c-0.752-0.446-1.569-0.787-2.438-1.006L25.691,204h-3.558l-0.502,3.111c-0.869,0.219-1.687,0.56-2.438,1.006
		l-2.841-2.126l-2.517,2.51l2.132,2.833c-0.447,0.748-0.789,1.563-1.009,2.432L12,214.264v3.551l2.958,0.499
		c0.22,0.865,0.562,1.682,1.009,2.431l-2.132,2.834l2.517,2.509l2.841-2.126c0.75,0.445,1.569,0.787,2.438,1.006L22.133,228h3.558
		l0.502-3.033c0.868-0.219,1.687-0.561,2.438-1.006l2.841,2.126l2.517-2.509l-2.132-2.834c0.448-0.749,0.79-1.565,1.009-2.431
		L36,217.814z M23.913,221.195c-2.856,0-5.172-2.309-5.172-5.156s2.316-5.156,5.172-5.156c2.854,0,5.17,2.309,5.17,5.156
		S26.768,221.195,23.913,221.195z"/>
	<path fill="#1DDBD9" d="M24,197c10.477,0,19,8.523,19,19s-8.523,19-19,19s-19-8.523-19-19S13.523,197,24,197 M24,194
		c-12.15,0-22,9.85-22,22s9.85,22,22,22s22-9.85,22-22S36.15,194,24,194L24,194z"/>
</g>
<g>
	<g>
		<circle fill="#525D78" cx="24" cy="72" r="22"/>
	</g>
	<path fill="#4D5770" d="M24,51c11.579,0,21,9.42,21,21s-9.421,21-21,21C12.42,93,3,83.58,3,72S12.42,51,24,51 M24,50
		C11.85,50,2,59.85,2,72s9.85,22,22,22s22-9.85,22-22S36.15,50,24,50L24,50z"/>
	<path fill="#FFFFFF" d="M36,73.814v-3.55l-3.135-0.5c-0.219-0.867-0.562-1.682-1.009-2.431l2.132-2.833l-2.517-2.51l-2.841,2.127
		c-0.752-0.447-1.569-0.787-2.438-1.006L25.691,60h-3.558l-0.502,3.112c-0.869,0.219-1.687,0.559-2.438,1.006l-2.841-2.126
		l-2.517,2.51l2.132,2.833c-0.447,0.749-0.789,1.563-1.009,2.431L12,70.264v3.55l2.958,0.5c0.22,0.865,0.562,1.682,1.009,2.43
		l-2.132,2.834l2.517,2.509l2.841-2.126c0.75,0.445,1.569,0.787,2.438,1.007L22.133,84h3.558l0.502-3.033
		c0.868-0.22,1.687-0.561,2.438-1.006l2.841,2.125l2.517-2.509l-2.132-2.834c0.448-0.749,0.79-1.565,1.009-2.43L36,73.814z
		 M23.913,77.195c-2.856,0-5.172-2.308-5.172-5.157c0-2.848,2.316-5.155,5.172-5.155c2.854,0,5.17,2.308,5.17,5.155
		C29.083,74.887,26.768,77.195,23.913,77.195z"/>
	<g opacity="0.2">
		<circle cx="24" cy="72" r="22"/>
	</g>
</g>
</svg>
