<?xml version="1.0" encoding="utf-8"?>
<!-- Generator: Adobe Illustrator 15.0.0, SVG Export Plug-In . SVG Version: 6.00 Build 0)  -->
<!DOCTYPE svg PUBLIC "-//W3C//DTD SVG 1.1//EN" "http://www.w3.org/Graphics/SVG/1.1/DTD/svg11.dtd">
<svg version="1.1" id="Layer_1" xmlns="http://www.w3.org/2000/svg" xmlns:xlink="http://www.w3.org/1999/xlink" x="0px" y="0px"
	 width="32px" height="160px" viewBox="0 0 32 160" enable-background="new 0 0 32 160" xml:space="preserve">
<path fill="#FFFFFF" d="M5,5v22h22V5H5z M13.871,22.799l-6.215-6.216l2.077-2.078l4.138,4.138L23.314,9.2l2.077,2.079L13.871,22.799
	z"/>
<path opacity="0.2" fill="#FFFFFF" d="M5,37v22h22V37H5z M13.871,54.799l-6.215-6.216l2.077-2.078l4.138,4.138l9.443-9.443
	l2.077,2.079L13.871,54.799z"/>
<g>
	<path fill="#FFFFFF" d="M5,69v22h22V69H5z M13.871,86.799l-6.215-6.216l2.077-2.078l4.138,4.138l9.443-9.443l2.077,2.079
		L13.871,86.799z"/>
	<circle opacity="0.1" enable-background="new    " cx="16" cy="80" r="16"/>
</g>
<g>
	<path fill="#FFFFFF" d="M5,101v22h22v-22H5z M13.871,118.799l-6.215-6.217l2.077-2.077l4.138,4.138l9.443-9.443l2.077,2.079
		L13.871,118.799z"/>
	<circle opacity="0.1" enable-background="new    " cx="16" cy="112" r="16"/>
</g>
<g>
	<path opacity="0.2" fill="#FFFFFF" d="M5,133v22h22v-22H5z M13.871,150.799l-6.215-6.217l2.077-2.077l4.138,4.138l9.443-9.443
		l2.077,2.079L13.871,150.799z"/>
	<circle opacity="0.1" enable-background="new    " cx="16" cy="144" r="16"/>
</g>
</svg>
