<?xml version="1.0" encoding="utf-8"?>
<!-- Generator: Adobe Illustrator 15.0.0, SVG Export Plug-In . SVG Version: 6.00 Build 0)  -->
<!DOCTYPE svg PUBLIC "-//W3C//DTD SVG 1.1//EN" "http://www.w3.org/Graphics/SVG/1.1/DTD/svg11.dtd">
<svg version="1.1" id="Layer_1" xmlns="http://www.w3.org/2000/svg" xmlns:xlink="http://www.w3.org/1999/xlink" x="0px" y="0px"
	 width="120px" height="240px" viewBox="0 0 120 240" enable-background="new 0 0 120 240" xml:space="preserve">
<path fill="#999999" d="M86,92.8H34c-3.313,0-6-2.687-6-6V40c0-3.314,2.687-6,6-6h6v4.333c0,3.038,2.463,5.5,5.5,5.5
	s5.5-2.462,5.5-5.5V34h19v4.333c0,3.038,2.463,5.5,5.5,5.5s5.5-2.462,5.5-5.5V34h5c3.313,0,6,2.686,6,6v46.8
	C92,90.113,89.313,92.8,86,92.8z M86,50H34v30.8c0,3.313,2.687,6,6,6h40.5c3.313,0,5.5-2.485,5.5-5.8V50z M58.242,80.828
	c-0.391,0.391-1.023,0.391-1.414,0l-0.004-0.004l0,0l-9.678-9.678c-0.391-0.392-0.391-1.023,0-1.414l3.121-3.121
	c0.391-0.391,1.023-0.391,1.414,0l5.854,5.854l13.85-13.85c0.391-0.391,1.023-0.391,1.414,0l3.121,3.122
	c0.391,0.391,0.391,1.022,0,1.414L58.242,80.828z M75.5,41c-1.381,0-2.5-1.12-2.5-2.5v-8c0-1.381,1.119-2.5,2.5-2.5
	s2.5,1.119,2.5,2.5v8C78,39.88,76.881,41,75.5,41z M45.5,41c-1.381,0-2.5-1.12-2.5-2.5v-8c0-1.381,1.119-2.5,2.5-2.5
	s2.5,1.119,2.5,2.5v8C48,39.88,46.881,41,45.5,41z"/>
<path fill="#FFFFFF" d="M86,213.3H34c-3.313,0-6-2.687-6-6v-46.8c0-3.314,2.687-6,6-6h6v4.333c0,3.038,2.463,5.5,5.5,5.5
	s5.5-2.462,5.5-5.5V154.5h19v4.333c0,3.038,2.463,5.5,5.5,5.5s5.5-2.462,5.5-5.5V154.5h5c3.313,0,6,2.686,6,6v46.8
	C92,210.613,89.313,213.3,86,213.3z M86,170.5H34v30.8c0,3.313,2.687,6,6,6h40.5c3.313,0,5.5-2.485,5.5-5.8V170.5z M58.242,201.328
	c-0.391,0.391-1.023,0.391-1.414,0l-0.004-0.004l0,0l-9.678-9.678c-0.391-0.392-0.391-1.023,0-1.414l3.121-3.121
	c0.391-0.391,1.023-0.391,1.414,0l5.854,5.854l13.85-13.85c0.391-0.391,1.023-0.391,1.414,0l3.121,3.121
	c0.391,0.391,0.391,1.022,0,1.414L58.242,201.328z M75.5,161.5c-1.381,0-2.5-1.12-2.5-2.5v-8c0-1.381,1.119-2.5,2.5-2.5
	s2.5,1.119,2.5,2.5v8C78,160.38,76.881,161.5,75.5,161.5z M45.5,161.5c-1.381,0-2.5-1.12-2.5-2.5v-8c0-1.381,1.119-2.5,2.5-2.5
	s2.5,1.119,2.5,2.5v8C48,160.38,46.881,161.5,45.5,161.5z"/>
</svg>
