<?xml version="1.0" encoding="utf-8"?>
<!-- Generator: Adobe Illustrator 15.0.0, SVG Export Plug-In . SVG Version: 6.00 Build 0)  -->
<!DOCTYPE svg PUBLIC "-//W3C//DTD SVG 1.1//EN" "http://www.w3.org/Graphics/SVG/1.1/DTD/svg11.dtd">
<svg version="1.1" id="Layer_1" xmlns="http://www.w3.org/2000/svg" xmlns:xlink="http://www.w3.org/1999/xlink" x="0px" y="0px"
	 width="120px" height="240px" viewBox="0 0 120 240" enable-background="new 0 0 120 240" xml:space="preserve">
<path fill="#999999" d="M86.051,82.55c-0.395,0.685-1.123,1.147-1.97,1.147c-1.261,0-2.281-1.021-2.281-2.281
	c0-0.548,0.2-1.043,0.521-1.436c-0.002-0.002-0.002-0.004-0.004-0.004c10.1-11.252,10.209-28.369,0.354-39.763
	c-0.524-0.418-0.87-1.057-0.87-1.781c0-1.26,1.021-2.282,2.281-2.282c0.723,0,1.354,0.341,1.773,0.862
	c0.008-0.007,0.017-0.014,0.023-0.021C97.318,49.951,97.361,69.52,86.051,82.55z M81.743,71.18c-0.31,0.893-1.149,1.539-2.147,1.539
	c-1.261,0-2.281-1.021-2.281-2.283c0-0.453,0.137-0.873,0.362-1.228c3.046-5.829,3.052-12.852-0.004-18.676h0.001
	c-0.113-0.272-0.178-0.57-0.178-0.884c0-1.26,1.021-2.281,2.281-2.281c1.086,0,1.988,0.758,2.222,1.772
	C85.365,56.091,85.289,64.297,81.743,71.18z M64.967,86.169c1.035,0-19.281-13.228-19.281-13.228h-14.88
	c-2.122,0-3.849-1.731-3.849-3.851V49.895c0-2.121,1.727-3.845,3.849-3.845h14.875c0,0,20.073-13.229,19.286-13.229
	c2.936,0,3.993,2.125,3.993,3.557v46.231C68.96,84.04,67.9,86.169,64.967,86.169z"/>
<path fill="#FFFFFF" d="M86.051,203.05c-0.395,0.685-1.123,1.147-1.97,1.147c-1.261,0-2.281-1.021-2.281-2.281
	c0-0.548,0.2-1.043,0.521-1.436c-0.002-0.002-0.002-0.004-0.004-0.004c10.1-11.252,10.209-28.369,0.354-39.764
	c-0.524-0.418-0.87-1.057-0.87-1.779c0-1.262,1.021-2.283,2.281-2.283c0.723,0,1.354,0.342,1.773,0.863
	c0.008-0.009,0.017-0.016,0.023-0.021C97.318,170.451,97.361,190.02,86.051,203.05z M81.743,191.68
	c-0.31,0.893-1.149,1.539-2.147,1.539c-1.261,0-2.281-1.021-2.281-2.283c0-0.453,0.137-0.873,0.362-1.228
	c3.046-5.829,3.052-12.853-0.004-18.676h0.001c-0.113-0.272-0.178-0.57-0.178-0.884c0-1.26,1.021-2.281,2.281-2.281
	c1.086,0,1.988,0.758,2.222,1.771C85.365,176.591,85.289,184.797,81.743,191.68z M64.967,206.669
	c1.035,0-19.281-13.228-19.281-13.228h-14.88c-2.122,0-3.849-1.731-3.849-3.852v-19.195c0-2.121,1.727-3.846,3.849-3.846h14.875
	c0,0,20.073-13.229,19.286-13.229c2.936,0,3.993,2.125,3.993,3.558v46.231C68.96,204.54,67.9,206.669,64.967,206.669z"/>
</svg>
